<?xml version="1.0" encoding="UTF-8"?>
<svg id="Layer_2" data-name="Layer 2" xmlns="http://www.w3.org/2000/svg" viewBox="0 0 175.79 62.93">
  <defs>
    <style>
      .cls-1 {
        fill: none;
      }

      .cls-1, .cls-2, .cls-3, .cls-4, .cls-5, .cls-6, .cls-7, .cls-8 {
        stroke-width: 0px;
      }

      .cls-3 {
        fill: #0f1011;
      }

      .cls-4 {
        fill: #231f20;
      }

      .cls-5 {
        fill: #bf9d42;
      }

      .cls-6 {
        fill: #fff2c7;
      }

      .cls-7 {
        fill: #fbf4a8;
      }

      .cls-8 {
        fill: #006a44;
      }
    </style>
  </defs>
  <g id="Layer_1-2" data-name="Layer 1">
    <g>
      <g>
        <g>
          <path class="cls-4" d="M3.13,58.09v3.52h-.65v-1.51H.65v1.51h-.65v-3.52h.65v1.45h1.82v-1.45h.65Z"/>
          <path class="cls-4" d="M6.71,61.06v.55h-2.64v-3.52h2.57v.55h-1.92v.92h1.7v.54h-1.7v.97h1.98Z"/>
          <path class="cls-4" d="M9.73,60.8h-1.76l-.35.81h-.67l1.58-3.52h.64l1.59,3.52h-.68l-.35-.81ZM9.51,60.29l-.66-1.54-.66,1.54h1.32Z"/>
          <path class="cls-4" d="M11.22,58.09h.65v2.96h1.84v.55h-2.49v-3.52Z"/>
          <path class="cls-4" d="M14.62,58.65h-1.17v-.55h2.99v.55h-1.17v2.97h-.65v-2.97Z"/>
          <path class="cls-4" d="M20.06,58.09v3.52h-.65v-1.51h-1.82v1.51h-.65v-3.52h.65v1.45h1.82v-1.45h.65Z"/>
          <path class="cls-4" d="M22.1,61.24l.23-.51c.28.23.73.39,1.16.39.55,0,.78-.2.78-.46,0-.76-2.09-.26-2.09-1.57,0-.57.45-1.05,1.42-1.05.42,0,.86.11,1.17.31l-.21.51c-.32-.19-.66-.28-.97-.28-.54,0-.76.21-.76.48,0,.75,2.09.26,2.09,1.55,0,.56-.46,1.05-1.42,1.05-.55,0-1.09-.17-1.39-.42Z"/>
          <path class="cls-4" d="M25.32,59.85c0-1.05.8-1.81,1.88-1.81.57,0,1.07.21,1.39.59l-.42.4c-.26-.28-.57-.41-.94-.41-.73,0-1.26.51-1.26,1.24s.53,1.24,1.26,1.24c.37,0,.68-.14.94-.42l.42.4c-.33.38-.82.59-1.4.59-1.08,0-1.88-.76-1.88-1.81Z"/>
          <path class="cls-4" d="M29.23,58.09h.65v3.52h-.65v-3.52Z"/>
          <path class="cls-4" d="M33.47,61.06v.55h-2.64v-3.52h2.57v.55h-1.91v.92h1.7v.54h-1.7v.97h1.99Z"/>
          <path class="cls-4" d="M37.33,58.09v3.52h-.54l-1.94-2.38v2.38h-.65v-3.52h.54l1.94,2.38v-2.38h.65Z"/>
          <path class="cls-4" d="M38.03,59.85c0-1.05.8-1.81,1.88-1.81.57,0,1.07.21,1.39.59l-.42.4c-.26-.28-.57-.41-.94-.41-.73,0-1.26.51-1.26,1.24s.53,1.24,1.26,1.24c.37,0,.68-.14.94-.42l.42.4c-.33.38-.82.59-1.4.59-1.08,0-1.88-.76-1.88-1.81Z"/>
          <path class="cls-4" d="M44.58,61.06v.55h-2.64v-3.52h2.57v.55h-1.91v.92h1.7v.54h-1.7v.97h1.99Z"/>
          <path class="cls-4" d="M45.01,61.24l.23-.51c.28.23.73.39,1.16.39.55,0,.78-.2.78-.46,0-.76-2.09-.26-2.09-1.57,0-.57.45-1.05,1.42-1.05.42,0,.86.11,1.17.31l-.21.51c-.32-.19-.66-.28-.97-.28-.54,0-.76.21-.76.48,0,.75,2.09.26,2.09,1.55,0,.56-.46,1.05-1.42,1.05-.55,0-1.09-.17-1.39-.42Z"/>
        </g>
        <g>
          <path class="cls-4" d="M53.92,58.03c.21,0,.36-.16.36-.38s-.15-.37-.36-.37-.37.16-.37.37.16.38.37.38Z"/>
          <path class="cls-4" d="M52.98,58.03c.21,0,.36-.16.36-.38s-.15-.37-.36-.37-.37.16-.37.37.16.38.37.38Z"/>
          <path class="cls-4" d="M61.54,61.87c-.22,0-.37.16-.37.37s.16.38.37.38.36-.16.36-.38-.15-.37-.36-.37Z"/>
          <path class="cls-4" d="M62.48,61.87c-.22,0-.37.16-.37.37s.16.38.37.38.36-.16.36-.38-.15-.37-.36-.37Z"/>
          <path class="cls-4" d="M75.09,60.15c0,.46-.18.66-.71.66,0,0,0,0,0,0,0,0,0,0,0,0-.36,0-.59-.22-.59-.56v-.24c0-.77-.42-1.42-1.6-1.42-.5,0-1.07.14-1.7.47v-.42h-.68v2.17h-1.54s0,0,0,0c0,0,0,0,0,0-.22,0-.47-.13-.57-.35.03-.12.04-.27.04-.44,0-.87-.49-1.43-1.64-1.43-.22,0-.56.03-.94.18l.14.51c.25-.09.51-.11.68-.11.76,0,1.05.31,1.05.83,0,.56-.13.81-.81.81h-1.3s0,0,0,0c0,0,0,0,0,0h-1.85s0,0,0,0c0,0,0,0,0,0-.44,0-.69-.23-.69-.6v-1.57h-.68v1.31c0,.56-.1.87-.84.87h-.92s0,0,0,0c0,0,0,0,0,0h-1.85s0,0,0,0c0,0,0,0,0,0h-2.77s0,0,0,0c0,0,0,0,0,0h-.05c-.41,0-.56-.1-.56-.48v-1.69h-1.24c-.86,0-1.44.47-1.44,1.32,0,.9.67,1.19,1.31,1.19.38,0,.66-.1.83-.18.18.32.58.39,1.08.39h2.92s0,0,0,0c0,0,0,0,0,0h1.85s0,0,0,0c0,0,0,0,0,0h.92s0,0,0,0c0,0,0,0,0,0,.63,0,1.03-.13,1.24-.43.19.3.61.42.96.43,0,0,0,0,.01,0h1.85s0,0,0,0c0,0,0,0,0,0h1.42c.5,0,.84-.13,1.05-.41.21.31.59.4.85.4,0,0,0,0,.01,0h4.29c.49,0,.81-.14.99-.41.19.27.52.41.86.41,0,0,0,0,0,0,0,0,0,0,0,0,.92,0,1.29-.36,1.29-1.1v-3.49h-.68v3.37ZM54,60.45c-.16.08-.34.13-.62.13s-.7-.1-.7-.65c0-.58.36-.74.79-.74h.52v1.26ZM72.46,60.81h-1.99v-1.16c.5-.3,1.03-.49,1.59-.49.72,0,1.03.41,1.03.97,0,.44-.13.67-.64.67Z"/>
          <rect class="cls-4" x="76.72" y="56.78" width=".68" height="4.59"/>
          <path class="cls-4" d="M82.01,58.59c-.85,0-1.29.62-1.38,1.49-.04.35-.07.57-.46.82-.28.19-.46.39-.46.86v1.16h.67v-.93c0-.5.14-.59.39-.75.12-.08.21-.18.26-.27.35.33.69.42,1.04.42.71,0,1.3-.48,1.3-1.41,0-.74-.41-1.39-1.36-1.39ZM82.05,60.82c-.32,0-.56-.15-.81-.38.05-.77.32-1.26.79-1.26.4,0,.66.26.66.84,0,.37-.17.8-.64.8Z"/>
          <path class="cls-4" d="M99.15,56.78v3.37c0,.46-.18.66-.71.66,0,0,0,0,0,0,0,0,0,0,0,0-.44,0-.69-.23-.69-.6v-3.43h-.68v3.37c0,.46-.18.66-.71.66,0,0,0,0,0,0,0,0,0,0,0,0h-.67c-.16,0-.36-.02-.47-.06.49-.33.84-.77.84-1.2,0-.62-.55-.96-1.36-.96-.52,0-1.07.22-1.35.39-.05.13-.11.47-.12.65.49.32.72.64,1.06,1.07-.16.06-.38.11-.62.11h-.66s0,0,0,0c0,0,0,0,0,0-.44,0-.69-.23-.69-.6v-3.43h-.68v3.37c0,.46-.18.66-.71.66h-.92s0,0,0,0c0,0,0,0,0,0h-2.77s0,0,0,0c0,0,0,0,0,0h-.47v-.92c0-.83-.54-1.29-1.3-1.29-.91,0-1.42.67-1.42,1.48,0,.77.44,1.29,1.51,1.29h.51c-.02.42-.29.56-.78.56-.24,0-.48-.05-.67-.09l-.1.53c.24.06.55.1.8.1.87,0,1.35-.37,1.44-1.09h3.34s0,0,0,0c0,0,0,0,0,0h.92s0,0,0,0c0,0,0,0,0,0,.57,0,.93-.13,1.12-.41.2.3.59.41.95.41,0,0,0,0,0,0h.49c.4,0,.78-.1,1.1-.24.22.14.52.24.96.24h.81s0,0,0,0c.57,0,.93-.13,1.12-.41.2.3.59.41.95.41,0,0,0,0,0,0,0,0,0,0,0,0,0,0,0,0,0,0,0,0,0,0,0,0,.92,0,1.29-.36,1.29-1.1v-3.49h-.68ZM86.08,60.81h-.44c-.52,0-.89-.18-.89-.79,0-.68.4-.85.69-.85.46,0,.64.37.64.84v.8ZM94.76,60.45c-.24-.37-.5-.73-.89-1.07.11-.07.46-.21.81-.21.49,0,.69.19.69.47s-.26.58-.61.81Z"/>
        </g>
        <path class="cls-8" d="M27.96,36.72c.33-.27.85-.41,1.54-.41h11.35l4.31-3.79v-.05h-16.09c-1,0-1.88.11-2.62.31-.74.2-1.33.53-1.79.99-.45.44-.8,1.03-1,1.77-.22.74-.33,1.61-.33,2.65v1c0,.88.08,1.65.25,2.29.17.64.47,1.18.91,1.6.44.44,1.02.75,1.77.96.74.2,1.68.31,2.81.31h9.69c.78,0,1.36.14,1.72.41.36.27.53.72.53,1.35v1.11c0,.69-.17,1.14-.53,1.38-.36.22-.94.34-1.76.34h-11.05l-4.37,3.84h15.66c1.13,0,2.09-.11,2.87-.3.8-.2,1.43-.5,1.93-.93s.85-.96,1.07-1.63c.22-.66.33-1.47.33-2.43v-1.6c0-.91-.11-1.69-.33-2.35s-.56-1.19-1.07-1.62c-.5-.41-1.13-.72-1.93-.91-.78-.19-1.74-.28-2.87-.28h-9.5c-.74,0-1.25-.13-1.55-.39-.3-.28-.44-.72-.44-1.36v-.66c0-.82.16-1.35.49-1.61Z"/>
        <path class="cls-8" d="M64.19,34.02c-.34-.58-.78-1.05-1.27-1.43-.5-.38-1.21-.56-2.12-.56s-1.65.19-2.15.56c-.5.38-.93.85-1.29,1.43l-11.79,18.77h5.21l2.9-4.69h14.06l2.95,4.69h5.24l-11.74-18.77ZM55.8,44.62l4.91-8.01,4.92,8.01h-9.83Z"/>
        <path class="cls-8" d="M99.81,32.47l-4.48,3.94v9.24c0,.63-.06,1.16-.19,1.58-.14.41-.34.75-.61,1-.28.27-.66.44-1.13.53-.45.11-1.03.16-1.71.16h-6.82c-.67,0-1.24-.05-1.71-.16-.47-.09-.85-.27-1.11-.53-.28-.25-.49-.6-.61-1-.14-.39-.2-.93-.2-1.55v-13.17l-4.55,4v9.31c0,1.3.11,2.38.36,3.26.25.89.67,1.6,1.27,2.15.6.55,1.4.94,2.38,1.19.99.25,2.24.38,3.73.38h7.62c1.51,0,2.76-.13,3.75-.38,1-.25,1.79-.64,2.38-1.19.6-.55,1.02-1.25,1.27-2.15.25-.88.38-1.96.38-3.26v-13.34h-.02Z"/>
        <path class="cls-8" d="M15.82,52.79l-11.32-9.92v9.92H0v-20.32h4.5v9.71l11.08-9.71h6.11l-11.62,9.86,11.95,10.46h-6.2Z"/>
        <path class="cls-8" d="M72.25,7.1v9.82c0,1.65-.6,3.03-1.79,4.15-1.18,1.11-2.6,1.66-4.25,1.66-1.33,0-2.54-.39-3.62-1.16-1.02.77-2.26,1.16-3.68,1.16-1.33,0-2.54-.39-3.61-1.16-1.05.75-2.21,1.13-3.45,1.13h-11.34c-3.79,0-5.69-1.82-5.69-5.46V4.11l4.69-4.11v16.84c0,.47.11.78.31.94.22.16.53.24.96.24h11.07c.28,0,.55-.11.77-.33s.33-.49.33-.77v-5.72l4.67-4.09h.02v9.82c0,.74.44,1.1,1.3,1.1s1.32-.36,1.32-1.1v-5.72l4.64-4.08h.02l.03-.02v9.82c0,.74.44,1.1,1.3,1.1s1.3-.36,1.3-1.1v-5.69l4.7-4.12Z"/>
        <path class="cls-8" d="M99.83,15.54c0,1.99-.64,3.68-1.93,5.08s-3.01,2.09-5.17,2.09h-11.51c-3.79,0-5.69-1.82-5.69-5.46V4.17L80.21.06v16.78c0,.47.11.78.31.94.22.16.53.24.96.24h11.24c.74,0,1.32-.2,1.76-.63.44-.42.66-.97.66-1.65,0-.74-.49-1.46-1.46-2.16s-2.45-1.29-4.44-1.76l-1.61-4.09,12.15-5.6v4.86l-4.7,2.18c3.17,1.68,4.75,3.79,4.75,6.37Z"/>
        <path class="cls-1" d="M22.55,14.87c0,.78.21,1.5.64,2.16.42.66.97.99,1.64.99h2.61v-6.23h-2.61c-1.52,0-2.28,1.03-2.28,3.08Z"/>
        <path class="cls-8" d="M21.35,7.78c-.96.46-1.68,1.09-2.16,1.89-.48.8-.82,1.62-1.02,2.46-.2.84-.3,1.75-.3,2.73,0,1.92.63,3.71,1.89,5.36,1.26,1.65,2.77,2.48,4.54,2.48h1.24c.09-.09.26-.26.52-.52.26-.26.55-.55.87-.87.32-.32.52-.52.59-.59v1.21c0,.19-.02.39-.06.58-.28,1.42-1.68,2.34-3.12,2.34h-.07l-5.84,5.12h5.58c1.81,0,3.59-.56,4.99-1.7.04-.04.09-.07.13-.11.85-.71,1.47-1.42,1.88-2.13s.69-1.33.87-1.88c.18-.55.27-1.03.27-1.46V7.1h-7.3c-1.36,0-2.52.23-3.48.69ZM27.44,18.02h-2.61c-.67,0-1.22-.33-1.64-.99-.42-.66-.64-1.38-.64-2.16,0-2.05.76-3.08,2.28-3.08h2.61v6.23Z"/>
      </g>
      <g>
        <circle class="cls-8" cx="144.32" cy="31.46" r="31.46"/>
        <circle class="cls-6" cx="144.23" cy="31.46" r="22.56"/>
        <g>
          <g>
            <g>
              <path class="cls-6" d="M116.39,28.83s-.11-.17-.34-.4l-.32.47s.05.08.12.17c.07.09.1.14.1.16,0,.04-.04.11-.12.22-.08.1-.13.17-.17.2.15.17.27.3.34.39.03-.03.08-.09.15-.2.08-.12.13-.21.15-.28-.08-.09-.15-.18-.22-.28.01,0,.06-.09.16-.23.09-.14.14-.22.14-.23Z"/>
              <path class="cls-6" d="M119.72,26.24l-.37.41s.05.07.12.17c.07.09.1.14.1.15,0,.03-.05.1-.14.2-.08.09-.15.15-.19.17.14.17.25.3.33.4.04-.02.1-.08.19-.19.08-.1.13-.17.16-.22-.08-.1-.15-.19-.21-.28.23-.24.34-.37.35-.4,0-.04-.1-.18-.34-.4Z"/>
              <path class="cls-6" d="M121.83,18.66c-.1-.1-.18-.17-.23-.22-.13-.13-.24-.21-.33-.26-.44-.19-.68-.3-.74-.34l-.27-.68c-.03.06-.24.18-.64.37-.05.02-.12.02-.21-.01-.06-.02-.1-.04-.12-.04-.02.03.03.15.15.36l.24.37c.09-.03.17-.06.24-.09l.57.2c.35.12.57.21.66.26.04.02.06.04.06.05l-.29.51-.14.18c-.08-.08-.13-.13-.17-.14-.15-.07-.32-.06-.5.02-.17.07-.29.18-.35.3-.06.13-.09.33-.09.61,0,.22,0,.42.03.62l.07.52c.02.18.02.29,0,.35-.03.06-.07.1-.12.12-.05.02-.1.01-.16-.03-.02-.02-.08-.06-.17-.13-.07-.05-.12-.09-.17-.11-.05-.02-.11-.03-.16-.03.13.31.2.48.22.51.24.1.34.19.31.26l-.15.38-.08.3c-.1-.06-.17-.1-.21-.12-.13-.08-.21-.13-.24-.16-.06.25-.19.52-.38.83-.05.08-.2.25-.43.5-.19.2-.3.37-.34.52,0,.03-.02.06-.02.09-.02.13.02.28.13.45.09.14.2.26.32.36.08.05.12.07.1.07.02,0,.03,0,.04-.02,0-.05-.02-.08-.03-.1-.05-.1-.06-.22-.02-.37.01-.05.17-.29.48-.71.06.3.08.53.04.67l-.24.97v.08c-.03.08-.07.15-.14.2s-.14.07-.21.04c-.27-.09-.51-.15-.71-.17.01.02.08.11.2.24.11.13.19.22.22.25.28.06.45.1.5.14l-.17.96-.04.19c-.02.19-.07.31-.15.36-.04.03-.33.06-.87.09-.54.04-.85.07-.93.11.28.2.47.34.56.42.02,0,.06,0,.1-.02.04-.01.08-.02.1-.02.05.05.11.19.2.42.09.23.16.38.22.45.06.09.22.19.46.3.21.1.35.15.43.17.02-.17.11-.5.27-1,0-.01,0-.02,0-.04,0-.08-.05-.16-.18-.23-.17-.1-.26-.17-.27-.21.27-.05.4-.08.41-.08.15-.05.23-.15.24-.3l.05-.41.16-.9c-.14-.12-.26-.22-.36-.3.28-.02.44-.14.48-.36l.06-.35.18-.73c.03-.11,0-.31-.07-.6-.08-.29-.11-.49-.08-.58.09-.31.15-.5.18-.58l.46.07.2-.71.08-.19c-.08-.11-.15-.19-.21-.25.22-.02.36-.08.39-.16l1.22-2.65.33-.58s.01-.02.02-.03c.02-.03.03-.06.03-.09,0-.05,0-.09-.03-.11ZM117.75,28.89c-.04.17-.06.28-.09.33-.04-.03-.07-.07-.1-.13-.05-.13-.12-.24-.23-.33-.05-.05-.08-.08-.08-.09.34-.05.52-.07.54-.06,0,.03-.02.13-.05.28ZM120.02,21.06c-.01-.18-.02-.32-.03-.41-.01-.22,0-.4.06-.52.11-.24.29-.38.55-.4l-.58,1.33Z"/>
            </g>
            <path class="cls-6" d="M121.85,16.96c.34.21.57.48.68.82l-1.77-.81s-.11-.15-.23-.38c-.11-.21-.18-.34-.2-.39.23.09.4.17.51.22.38.17.72.35,1.01.53Z"/>
            <path class="cls-6" d="M123.57,14.49l.36.55c-.23.17-.39.31-.48.43-.17.23-.28.44-.33.64.25.11.45.21.59.32.08.06.21.19.36.37.18.22.26.35.22.39-.01.02-.47-.23-1.36-.74-.05-.03-.1-.1-.14-.22-.02-.08-.04-.18-.06-.28-.03-.12.04-.37.2-.76-.16,0-.28.05-.35.14-.06.07-.08.2-.06.37.01.18.02.26.02.26-.01.01-.06-.05-.14-.21-.09-.17-.16-.33-.2-.46-.08-.25-.07-.44.03-.57.08-.1.31-.17.68-.2.01,0,.24-.01.67-.04Z"/>
            <path class="cls-6" d="M129.88,10.01c-.05-.13-.08-.23-.11-.3-.06-.17-.12-.3-.18-.38-.31-.37-.48-.58-.51-.63l.06-.73c-.05.04-.3.05-.73.04-.05,0-.11-.03-.18-.1-.05-.05-.08-.08-.08-.09-.03.02-.04.15-.02.39l.05.43c.09.01.18.02.25.03l.42.43c.26.26.41.44.48.53.03.04.04.06.03.07l-.45.31h0s-.01,0-.01,0l-.05.03h0s-.06.05-.06.05c-.06.05-.13.03-.19-.06-.05-.07-.3-.34-.73-.81-.46-.5-.7-.74-.72-.72,0,.32,0,.58.02.78l1.17,1.13-.44.33-.3.24s-.03-.1-.04-.23c-.01-.11-.04-.19-.08-.24-.07-.08-.19-.13-.37-.15-.22-.02-.41.05-.59.2-.1.09-.19.21-.26.35-.06.12-.08.19-.07.21,0,.06.03.17.07.33.04.18.07.28.08.29.05-.07.1-.13.15-.16.08-.07.18-.11.3-.12.09,0,.17,0,.24.03l-.75.67-.06.06c-.06.06-.12.04-.2-.03-.06-.06-.34-.3-.82-.71-.52-.43-.79-.64-.81-.62.04.31.08.57.12.77l1.31.98-.38.37-.25.25c-.13-.1-.3-.18-.5-.26-.31-.13-.53-.13-.64,0-.13.14-.11.4.06.78.14.31.25.51.34.59.13.12.3.12.5,0,.13-.08.26-.18.39-.32.02.25-.02.55-.12.89-.04.13-.11.26-.2.36-.07.08-.18.17-.33.26-.09.06-.12.1-.1.13.06.06.23.02.5-.12.26-.13.44-.25.55-.37.12-.13.17-.36.15-.66-.02-.29-.09-.54-.21-.76l.22-.22.3-.3c-.06-.24-.11-.39-.14-.46l.22.21c.06.06.12.06.17,0l.4-.4.71-.62c-.02-.17-.04-.29-.06-.37.16.05.28.09.35.12l.46-.39.34-.26c-.03-.24-.06-.4-.08-.48l.2.23c.05.06.11.07.17.03l.43-.32.49-.33s.02-.01.03-.02c.03-.02.05-.04.07-.07.03-.04.04-.08.02-.11ZM124.79,13.67c-.06.07-.13.12-.2.15-.1.04-.17.04-.22-.01-.04-.14-.04-.23,0-.28.04-.05.12-.06.23-.04.08.02.16.04.23.08.02.02,0,.05-.05.11Z"/>
            <g>
              <path class="cls-6" d="M131.11,6.99s.08-.1.14-.24c.06-.14.09-.23.07-.25,0-.01-.1-.04-.27-.08-.17-.04-.27-.06-.28-.05-.02.01-.06.1-.11.26s-.07.25-.06.27c0,.01.09.04.24.07.15.03.24.04.26.03Z"/>
              <path class="cls-6" d="M134.42,7.66c-.04-.2-.08-.37-.13-.53v-.04c-.05-.13-.09-.23-.12-.32-.03-.07-.06-.12-.1-.17-.13-.18-.37-.36-.71-.55-.03.35-.06.57-.08.67.1.04.23.12.37.24.11.09.19.17.25.23l-1.24.56-.14.07c-.12.07-.26.08-.4.05-.09-.02-.21-.08-.36-.17-.15-.09-.25-.14-.31-.16-.02.25-.03.47-.03.65-.01-.02.07,0,.24.08.17.07.28.15.32.23.05.1,0,.35-.19.75-.15.32-.3.52-.47.61-.07.04-.21.07-.43.09-.1.01-.16.02-.2.01,0,0,0,0,0,.01.04.07.25.1.64.09.37-.02.61-.06.72-.12.18-.1.29-.33.34-.71.04-.27.04-.51,0-.7.04.02.1,0,.18-.02.05-.02.09-.03.11-.04l.17-.09h0s1.56-.7,1.56-.7Z"/>
              <path class="cls-6" d="M134.04,8.28s-.03.08-.07.2c-.04.1-.06.16-.07.17-.03.01-.11.01-.24,0-.12-.02-.2-.04-.25-.06-.06.22-.11.38-.15.49.05.02.13.04.26.05.12.01.22.02.28.01.04-.12.08-.23.12-.33.02,0,.11.02.27.04.16.02.25.03.26.02.04-.02.09-.18.14-.5l-.54-.07Z"/>
            </g>
            <g>
              <path class="cls-6" d="M134.97,5.28s.09-.08.18-.22c.08-.13.12-.21.11-.24,0-.01-.09-.05-.25-.12s-.26-.1-.27-.09c-.02,0-.07.09-.14.24-.07.15-.11.23-.1.26,0,.02.08.05.23.1.15.05.23.07.25.07Z"/>
              <path class="cls-6" d="M139.08,4.59l.34-.65c-.06.01-.29-.07-.69-.25-.05-.02-.09-.08-.13-.16-.02-.06-.04-.1-.04-.12-.04,0-.09.12-.17.35l-.12.42c.08.05.15.09.22.12l.22.56c.13.34.21.57.23.68,0,.05,0,.07,0,.08l-.52.1-.38.09s.02-.1.06-.22c.04-.11.05-.19.03-.25-.03-.11-.12-.2-.27-.29-.19-.11-.39-.14-.61-.08-.13.04-.26.1-.39.2-.1.08-.15.13-.16.16-.02.06-.04.17-.08.33-.04.18-.06.28-.06.3.08-.04.15-.07.2-.08.11-.03.21-.02.33.02.08.03.15.07.2.13l-.9.24-.15.05c-.13.05-.27.04-.41-.01-.09-.04-.19-.11-.33-.22s-.23-.18-.28-.21c-.06.25-.1.46-.13.64,0-.02.07.02.23.12.16.1.26.19.29.27.04.11-.06.34-.3.71-.19.29-.38.47-.56.53-.07.03-.22.03-.44.03-.1,0-.16,0-.2-.02,0,0,0,0,0,.01.03.08.23.14.62.18.37.04.61.04.73,0,.19-.07.34-.28.44-.65.08-.26.11-.5.11-.7.04.02.1.02.18.01.05,0,.09-.02.11-.03l.2-.07.99-.27c.06-.16.09-.28.11-.36.12.12.21.2.26.26l.58-.15.66-.13s.02,0,.03,0c.03,0,.06-.02.09-.04.04-.02.06-.06.07-.1,0-.14.01-.25.02-.32,0-.18,0-.32-.02-.42-.14-.46-.21-.72-.23-.78Z"/>
            </g>
            <path class="cls-6" d="M140.61,5.01c.06.39,0,.75-.18,1.05l-.54-1.87s.04-.18.13-.42c.09-.22.14-.36.17-.4.08.24.13.41.17.53.12.4.2.77.25,1.11Z"/>
            <g>
              <path class="cls-6" d="M144.8,6.51c-.15-.13-.22-.2-.24-.2-.03,0-.11.06-.25.19-.14.12-.21.2-.21.23,0,.02.07.09.2.2.13.11.21.17.24.17.03,0,.12-.05.26-.16.14-.1.21-.17.21-.2,0-.01-.07-.09-.22-.22Z"/>
              <path class="cls-6" d="M148.28,5.33c-.13-.01-.32-.03-.58-.05-.26-.02-.46-.03-.59-.05-.1,0-.16-.03-.19-.05-.12-.09-.23-.19-.33-.32-.1-.11-.15-.18-.14-.2,0-.02.05-.03.14-.05.13-.03.3-.03.5-.01.26.02.46.08.61.16.07.04.17.12.28.24.03-.13-.03-.31-.17-.53-.16-.27-.36-.41-.59-.43-.19-.02-.43.07-.71.26-.19.13-.32.24-.37.31-.12.11-.19.23-.2.34l-.02.17-.44-.02h-.1c-.08,0-.15-.03-.22-.09s-.09-.13-.07-.2c.05-.28.07-.53.06-.73-.02.02-.09.1-.21.24-.11.13-.18.22-.21.26-.01.29-.03.46-.06.52l-.98-.02h-.27c-.07,0-.15-.1-.23-.32-.04-.13-.09-.27-.13-.4-.13-.41-.24-.73-.33-.94-.01.03-.07.15-.15.36s-.13.32-.13.33l.16.46c.11.31.17.49.16.57l-1.13.09c-.1,0-.15-.06-.16-.2,0-.04,0-.1,0-.17s0-.13,0-.17c-.05.02-.09.08-.12.17-.02.06-.03.11-.03.15-.03.29-.05.54-.06.74,0,.04.02.08.05.11.03.03.07.04.11.04l1.2-.09c.06,0,.11-.06.15-.18.05-.13.09-.2.11-.21.01.02.05.1.11.25.03.07.07.11.12.1l.48-.02h.91c.09-.14.17-.28.23-.39.06.27.21.41.43.41h.36s2.32.22,2.32.22l.45-.63Z"/>
            </g>
            <g>
              <path class="cls-6" d="M150.46,4.89s.12-.02.27-.09.23-.12.23-.14c0-.01-.05-.1-.15-.25-.1-.15-.16-.23-.18-.24-.02,0-.11.04-.26.13-.15.09-.23.15-.24.17,0,.02.04.09.14.22.1.13.16.2.18.2Z"/>
              <path class="cls-6" d="M152.16,7.33s-.12.03-.29.1-.26.13-.27.15c0,.02.04.1.13.25.09.15.15.22.18.23.03.01.13-.01.29-.07s.25-.1.26-.12c0-.01-.04-.11-.14-.28-.1-.17-.15-.26-.16-.26Z"/>
              <path class="cls-6" d="M153.49,5.74c-.04-.2-.08-.34-.14-.42-.31.27-.48.43-.52.47.07.13.12.29.13.5,0,.07,0,.16,0,.28l-1.1-.37-.17-.07c-.11-.03-.18-.11-.23-.25-.07-.24-.12-.41-.15-.53-.25.24-.41.4-.49.48.08.19.14.38.16.6.02.17.02.29,0,.35-.05.05-.19.07-.42.06-.2,0-.35-.02-.47-.05-.16-.04-.3-.1-.43-.19-.19-.13-.27-.29-.23-.46.05-.19.18-.4.4-.65l.02-.14c-.13.1-.27.22-.41.37-.24.26-.4.53-.46.81-.1.41.19.7.86.86.12.03.28.03.51.02.21-.02.36-.05.46-.1s.2-.15.33-.31c.11-.13.17-.23.18-.28l.27.09,1.4.47c.07-.09.19-.27.38-.56.1-.2.15-.37.16-.51.01-.11,0-.26-.03-.45Z"/>
            </g>
            <path class="cls-6" d="M156.1,7.87c-.19.4-.35.57-.49.51l-1.26-.58.33-.56,1.06.49c.03-.08.03-.2,0-.35-.03-.14-.07-.25-.12-.33-.05-.08-.12-.17-.22-.28.15-.18.31-.35.47-.52.05.04.1.12.17.23.08.14.13.27.17.4.06.24.06.49-.01.74-.01.05-.05.14-.1.25Z"/>
            <path class="cls-6" d="M162.29,11.42c-.19.04-.31.08-.34.12-.02.03-.08.11-.16.23l-.36-.3s0-.02.02-.03c.06-.08.27-.23.61-.46-.04-.03-.14-.03-.32.01-.13.03-.23.06-.32.09-.11.07-.18.14-.23.19-.12-.09-.23-.17-.31-.24-.18-.15-.26-.24-.26-.27.07-.03.17-.09.29-.17.14-.1.26-.2.34-.29.03-.04.04-.06.02-.06-.17,0-.38.05-.64.13-.09.11-.18.19-.27.22l-.55-.42-.26-.17s.09-.05.21-.1c.11-.04.18-.09.21-.14.06-.09.08-.22.05-.39-.04-.21-.15-.39-.34-.51-.11-.08-.25-.13-.41-.16-.13-.02-.2-.03-.22-.02-.06.03-.16.08-.3.15-.16.09-.25.14-.26.15.08.03.15.07.2.1.09.06.16.15.2.26.03.08.04.16.04.24l-.76-.51-.3-.18c.06-.15.11-.33.14-.54.05-.33,0-.54-.13-.62-.16-.09-.41-.02-.75.23-.27.2-.44.35-.5.46-.09.15-.05.32.11.49.1.11.23.22.4.31-.24.07-.54.1-.89.08-.14,0-.27-.05-.4-.12-.09-.05-.2-.14-.33-.26-.08-.08-.13-.1-.15-.07-.04.08.03.23.23.47.18.22.34.37.48.45.16.09.38.09.68,0,.28-.08.51-.2.7-.37l.28.16.86.58c.16-.06.27-.12.34-.15,0,.17-.02.29-.03.37l.61.41s.28.22.32.25c.03.01.07.02.13.01.02,0,.07-.01.14-.03,0,.03-.02.09-.07.19l.67.56c.08,0,.13,0,.14-.01,0,0,0,.05,0,.12l.68.56s.14-.08.39-.22c.06,0,.16-.09.29-.26l.45-.54c-.06,0-.18,0-.37.05ZM157.46,8.6s-.05.01-.11-.02c-.08-.04-.14-.1-.19-.16-.06-.08-.07-.16-.04-.22.13-.07.22-.09.27-.06.05.03.08.1.09.22,0,.08,0,.17-.03.25Z"/>
            <g>
              <path class="cls-6" d="M164.21,13.33c.17.2.37.29.59.28.15,0,.27-.05.36-.13.08-.07.07-.16-.03-.28-.12-.15-.18-.25-.17-.32.08,0,.26.11.52.31.2-.04.35-.08.43-.12-.12-.14-.36-.25-.72-.33-.36-.08-.6-.08-.71,0-.08.06-.09.16-.01.28.08.12.13.21.17.27-.06,0-.18-.06-.37-.19-.19-.12-.29-.19-.3-.19,0,.03.03.1.1.22.06.09.11.16.14.19Z"/>
              <path class="cls-6" d="M168.18,15.85s-.15-.04-.39-.04c-.11,0-.26.01-.44.03-.02.09-.03.17-.04.25l-.43.4c-.27.25-.45.4-.55.47-.04.03-.07.04-.08.03l-.33-.51-.05-.07c-.05-.06-.03-.13.06-.19.07-.05.34-.29.82-.71.51-.45.75-.68.73-.71-.32,0-.58,0-.78,0l-1.16,1.15-.4-.63c-.08-.09.01-.27.26-.53.17-.16.33-.32.5-.48.46-.49.68-.75.66-.77-.3.04-.55.08-.74.12l-1.08,1.22-1.54-1.75c-.07-.08-.09-.18-.07-.31.02-.11.08-.21.17-.29.04-.03.1-.07.18-.12.08-.04.14-.08.17-.11l.02-.02s0-.01.01-.02c-.1,0-.24.03-.43.12-.18.08-.31.16-.4.24-.15.13-.24.29-.26.47-.03.18.03.35.16.5l1.35,1.54.47-.11-.25.22s-.05.08-.02.13l.32.45.25.34c.25-.03.4-.05.48-.07l-.24.19c-.06.05-.07.11-.03.17l.33.46h0s.3.47.3.47c.01.02.03.05.06.09.03.04.05.07.06.09.06.1.1.19.1.28-.02.14-.05.24-.08.31.25.02.47-.03.64-.13.07-.05.1-.17.08-.38-.02-.21-.01-.34.03-.37.38-.3.59-.47.64-.5.28.03.52.06.73.08-.03-.06-.04-.31-.03-.74,0-.07.07-.15.21-.24Z"/>
            </g>
            <path class="cls-6" d="M167.53,18.48c-.34.2-.69.27-1.05.22l1.54-1.18s.18-.03.44-.03c.24,0,.39,0,.43,0-.19.16-.34.27-.43.35-.33.25-.65.47-.94.64Z"/>
            <g>
              <path class="cls-6" d="M169.7,19.23s-.01.11-.02.28-.01.26,0,.27c.01.03.18.09.5.17l.04-.57s-.08-.04-.19-.09c-.1-.04-.16-.07-.16-.09-.02-.03-.02-.12,0-.25.01-.13.03-.21.05-.25-.22-.07-.38-.13-.49-.17-.01.04-.03.12-.04.25-.01.14-.01.25,0,.32.12.04.22.08.33.13Z"/>
              <path class="cls-6" d="M170.9,24.92c-.02-.07-.07-.15-.14-.24-.05-.06-.09-.1-.12-.13-.08-.09-.17-.17-.26-.23-.17-.12-.37-.19-.6-.22-.11-.01-.2-.02-.25-.03l-.1-.36-.02-.07h0s0-.01,0-.01l-.1-.29s.1.01.23.04c.11.03.2.03.26.01.11-.04.2-.13.27-.29.1-.2.11-.4.03-.62-.05-.13-.12-.25-.23-.37-.09-.1-.14-.14-.17-.14-.06-.01-.17-.03-.33-.06-.18-.03-.29-.04-.3-.03.05.08.08.14.1.2.04.1.04.21,0,.33-.02.09-.06.16-.11.21l-.3-.86-.07-.18c-.08-.17-.09-.3-.05-.39.03-.05.26-.22.7-.51.45-.3.7-.49.75-.56-.34-.04-.58-.07-.69-.09-.02.01-.05.03-.08.07-.03.03-.06.06-.08.07-.07-.02-.19-.11-.38-.26-.19-.15-.33-.25-.42-.29-.1-.04-.28-.05-.55-.03-.23.02-.38.04-.45.07.07.15.16.49.26,1,0,.01,0,.02.01.03.03.07.12.11.27.12.19,0,.31.02.33.05-.21.18-.31.27-.32.28-.1.12-.12.25-.06.38l.17.38.35.99c.17.04.29.07.37.08-.11.13-.19.22-.24.28l.21.6.08.29c.02.07.11.12.26.15.16.03.24.06.24.09l-.1,1.03s.11.06.31.12c.2.06.32.09.36.08.11-.03.23-.09.37-.17.15-.1.27-.17.35-.22.1-.06.17-.1.22-.13.04-.03.04-.08.03-.14ZM168.46,20.41c-.05-.17-.09-.28-.09-.33.05,0,.1.02.15.07.1.09.23.15.37.17.07.02.11.03.11.04-.27.21-.42.32-.44.32-.01-.03-.05-.12-.1-.27ZM169.98,24.97l.08-.5c.1.09.17.17.19.26.02.06-.07.14-.27.24Z"/>
            </g>
            <g>
              <path class="cls-6" d="M169.24,28.38c-.15-.12-.24-.18-.26-.18-.04,0-.13.2-.28.6,0,.02.09.1.26.22.15.11.24.17.25.17,0,0,0,0,0,0,0-.02.04-.12.12-.3s.13-.27.13-.28c0-.02-.08-.1-.23-.22Z"/>
              <path class="cls-6" d="M171.14,27.63c-.1-.08-.23-.17-.4-.25-.14-.07-.21-.1-.21-.09.12.2.19.36.2.47,0,.06-.03.2-.11.42-.07.19-.11.29-.13.32-.08-.1-.13-.27-.15-.5l-.16-1.05-.02-.09c-.03-.15-.04-.24-.02-.26.7-.22,1.4-.42,2.09-.62-.36-.17-.55-.27-.58-.28-1.48.4-2.23.62-2.24.64l.15.77.13.84c.01.11.09.27.24.49.15.22.23.39.24.51,0,.09.02.31.04.67,0,.15.01.25.01.31.27.15.46.26.58.33,0-.2.06-.52.19-.97.03-.11.1-.27.18-.46.08-.18.13-.31.15-.39.04-.14.05-.28.04-.44-.01-.11-.09-.23-.23-.35Z"/>
              <path class="cls-6" d="M170.22,29.91s0,0-.01,0c0,.09.01.09.01,0Z"/>
            </g>
          </g>
          <g>
            <path class="cls-6" d="M118.79,36.35h0s1.16.44,1.16.44l.09.53-1.24-.46-1.37,1-.1-.55.99-.69-.33-.13-.78.14-.09-.49,2.62-.46.09.49-1.05.19Z"/>
            <path class="cls-6" d="M119.55,38.05l-1.95.45-.11-.47,1.95-.45.11.47ZM120.22,37.89l-.43.1-.11-.47.43-.1.11.47Z"/>
            <path class="cls-6" d="M119.74,38.78l-.23.06h0c.11.03.2.07.26.14.07.07.11.15.14.25.04.15.03.27-.03.37-.06.1-.19.18-.39.24l-1.43.41-.13-.46,1.33-.38c.1-.03.17-.06.2-.11.03-.04.04-.1.02-.17-.05-.16-.18-.21-.39-.15l-1.28.36-.13-.46,1.93-.55.12.44Z"/>
            <path class="cls-6" d="M118.75,41.9c-.24.09-.45.1-.61.03s-.29-.23-.38-.5c-.07-.19-.08-.35-.03-.49.05-.13.16-.23.32-.29l.15.43c-.06.02-.1.06-.12.12,0,.03-.01.06-.01.08s0,.06.01.09c.03.09.09.14.16.16s.16,0,.26-.03l.25-.09h0c-.09-.03-.16-.06-.23-.11-.07-.05-.11-.11-.14-.18-.06-.18-.04-.34.08-.48.11-.14.34-.28.69-.4.11-.04.22-.07.34-.1.12-.03.23-.04.34-.04.11,0,.2.03.29.09.08.05.15.14.19.26.02.06.03.14.01.22-.01.08-.06.16-.14.24h0s.21-.07.21-.07l.15.43-1.79.64ZM119.04,40.79c-.06.03-.1.06-.14.09-.04.03-.07.07-.08.11-.02.04-.02.08,0,.13.02.05.04.08.08.1.04.02.08.03.14.04.05,0,.11,0,.18-.02.07-.02.14-.04.22-.07.23-.08.39-.16.47-.22.08-.07.11-.15.08-.24-.02-.05-.04-.09-.08-.11-.03-.02-.08-.03-.14-.03s-.13.01-.22.04c-.09.03-.2.06-.32.11-.07.02-.13.05-.18.07Z"/>
            <path class="cls-6" d="M120.01,43.19c-.06.03-.11.06-.15.09-.04.03-.07.06-.09.1-.02.04-.03.08-.03.13,0,.05.01.1.04.16.03.07.09.12.16.15.07.03.16.02.26-.02.05-.03.1-.05.13-.09.03-.03.06-.07.07-.12.02-.05.03-.1.03-.16,0-.06,0-.14-.01-.23-.01-.12-.01-.22,0-.32,0-.09.03-.18.06-.25.03-.08.08-.14.15-.2s.15-.11.24-.16c.24-.11.44-.14.62-.07.17.07.31.21.42.42.05.1.08.2.1.29s.01.19-.01.27c-.02.09-.07.17-.13.24-.07.07-.16.14-.27.19l-.07.03-.2-.43c.11-.05.19-.11.24-.18.04-.07.05-.14,0-.23-.02-.05-.05-.09-.08-.11-.03-.03-.07-.04-.1-.05s-.07,0-.11,0c-.04,0-.07.02-.11.04-.07.03-.13.08-.17.13-.04.05-.05.14-.05.25v.42c0,.1,0,.19-.02.27s-.04.14-.08.2c-.04.06-.08.11-.13.15-.05.04-.12.08-.19.11-.25.12-.47.14-.65.06-.18-.08-.33-.24-.44-.49-.12-.25-.15-.46-.08-.63.07-.17.21-.3.43-.41l.1-.05.21.45-.07.03Z"/>
            <path class="cls-6" d="M121.22,44.12c.1-.06.2-.09.28-.1.09,0,.16,0,.23.03.07.03.14.07.19.13.06.06.11.13.15.21.07.13.11.23.13.32.02.09.01.17-.01.24-.02.07-.07.13-.12.18-.06.05-.13.1-.2.14l-.92.51c-.08.05-.14.09-.19.12-.04.03-.08.07-.12.12l-.22-.4s.04-.06.07-.08c.03-.02.05-.05.08-.07h0c-.12,0-.21-.03-.27-.07s-.12-.12-.18-.22c-.04-.07-.06-.14-.06-.21,0-.07.01-.13.04-.18.03-.06.07-.11.12-.16.05-.05.11-.09.17-.12.08-.05.16-.08.23-.09.07-.02.13-.02.19-.01.06,0,.12.03.18.07s.12.08.18.14l.2.2c.05.05.1.08.14.09.04,0,.1,0,.15-.04.07-.04.11-.08.13-.13.02-.05.01-.11-.03-.18-.04-.06-.08-.1-.14-.11-.06,0-.12,0-.19.04l-.05.03-.21-.38.04-.02ZM121.16,45.04s-.06-.05-.08-.07c-.07-.07-.13-.12-.2-.13-.07-.01-.14,0-.22.05-.07.04-.12.08-.15.13-.03.05-.04.1,0,.16.02.03.04.05.06.08.03.02.06.04.09.06.04.01.08.02.12.01.04,0,.09-.02.14-.04l.35-.19s-.08-.03-.11-.06Z"/>
            <path class="cls-6" d="M121.53,47c-.11.01-.21,0-.29-.05-.08-.05-.15-.11-.2-.2-.08-.13-.11-.25-.08-.36.03-.12.13-.23.3-.34l1.25-.81.26.4-1.16.75c-.09.06-.14.11-.16.16-.02.05,0,.1.03.16.09.14.23.15.42.03l1.12-.72.26.4-1.69,1.09-.25-.38.2-.13h0Z"/>
            <path class="cls-6" d="M122.54,48.47c-.11.01-.2,0-.26-.03s-.13-.09-.19-.16c-.12-.16-.14-.32-.06-.49.07-.17.26-.37.56-.59.3-.22.54-.35.73-.37.19-.02.34.04.46.2.05.07.08.15.09.22,0,.07,0,.16-.04.24h0s.68-.5.68-.5l.28.38-2.14,1.59-.27-.37.17-.13h0ZM122.5,47.92c-.07.09-.07.18-.01.26.06.09.15.11.26.07.11-.04.25-.13.42-.26.18-.13.3-.24.37-.33.07-.09.07-.18.01-.26-.06-.08-.15-.1-.25-.06-.11.04-.25.13-.42.26-.18.13-.3.24-.37.33Z"/>
            <path class="cls-6" d="M125.76,48.54l-.62.57h0c.09-.01.18,0,.25.01.07.02.14.06.2.13.13.15.17.31.11.49-.06.18-.23.39-.51.64-.28.25-.51.39-.69.44-.18.04-.34-.01-.47-.16-.07-.07-.11-.14-.12-.22-.02-.07,0-.16.03-.26h0s-.16.14-.16.14l-.31-.34,1.97-1.79.32.35ZM124.19,50.02c-.06.1-.06.19.02.26.07.08.16.09.26.04.1-.05.24-.15.4-.3.16-.15.27-.27.33-.37.06-.1.06-.18-.01-.26-.07-.08-.16-.09-.26-.04-.1.05-.24.15-.4.3-.16.15-.27.27-.33.37Z"/>
            <path class="cls-6" d="M126.46,50.22l-1.42,1.42-.34-.34,1.42-1.42.34.34ZM126.94,49.74l-.31.31-.34-.34.31-.31.34.34Z"/>
            <path class="cls-6" d="M127.01,50.75l-.16.17h0c.1-.03.2-.04.29-.02.09.02.17.07.25.14.11.1.17.21.17.34,0,.12-.07.26-.2.41l-1,1.1-.35-.32.93-1.02c.07-.08.11-.14.11-.19,0-.05-.02-.1-.07-.15-.12-.11-.26-.09-.41.08l-.89.99-.35-.32,1.35-1.48.34.31Z"/>
            <path class="cls-6" d="M129.75,52.15l-1.07,2.52-.42-.31.24-.52-.53-.39-.43.38-.42-.31,2.12-1.74.49.37ZM128.7,53.44l.52-1.1h0s-.91.81-.91.81l.39.29Z"/>
            <path class="cls-6" d="M130.71,52.82l-.46.71h0c.09-.04.17-.06.24-.05.07,0,.15.03.23.07.16.11.24.25.23.44-.01.19-.12.44-.32.75-.2.31-.39.51-.55.6-.17.09-.33.08-.49-.03-.08-.05-.14-.11-.17-.18s-.05-.15-.04-.26h0s-.12.17-.12.17l-.38-.25,1.44-2.24.4.26ZM129.59,54.65c-.03.11,0,.19.08.25.09.06.17.05.26-.03.09-.08.19-.21.31-.39.12-.18.19-.33.23-.44.03-.11,0-.19-.08-.25-.09-.06-.18-.05-.26.03-.09.08-.19.21-.31.39-.12.18-.19.33-.23.44Z"/>
            <path class="cls-6" d="M131.33,56.04c-.09.06-.18.09-.25.09-.08,0-.16-.02-.24-.07-.17-.1-.26-.24-.26-.42,0-.19.09-.44.27-.77.18-.33.35-.54.51-.64.16-.1.33-.1.5,0,.08.04.14.1.17.16.04.07.06.15.06.24h0s.41-.73.41-.73l.42.23-1.29,2.33-.4-.22.1-.19h0ZM131.06,55.55c-.03.11,0,.19.1.24.09.05.18.04.26-.04.08-.08.17-.22.28-.41.11-.19.17-.34.2-.45.03-.11,0-.19-.1-.25-.09-.05-.18-.03-.26.05-.08.08-.17.22-.28.41-.11.19-.17.34-.2.45Z"/>
            <path class="cls-6" d="M132.93,56.82c-.09.07-.18.1-.27.11-.09,0-.18-.02-.28-.06-.14-.06-.23-.15-.26-.27-.04-.11-.01-.26.07-.44l.63-1.35.43.2-.59,1.25c-.04.09-.06.17-.05.22.01.05.05.09.11.12.15.07.28,0,.37-.19l.57-1.2.43.2-.86,1.81-.41-.2.1-.21h0Z"/>
            <path class="cls-6" d="M135.08,55.1l-1.02,2.46-.44-.18,1.02-2.46.44.18Z"/>
            <path class="cls-6" d="M134.92,56.36c.04-.11.09-.2.15-.26.06-.06.12-.11.2-.13.07-.03.15-.04.23-.03s.17.03.25.06c.13.05.24.1.31.16s.12.12.15.19c.03.07.04.14.03.22,0,.08-.03.16-.06.24l-.36.99c-.03.09-.05.16-.06.21,0,.05-.01.11-.01.17l-.43-.15s0-.07,0-.11c0-.04,0-.07.01-.11h0c-.09.08-.17.12-.25.12s-.17-.01-.28-.05c-.08-.03-.14-.07-.18-.12s-.07-.1-.09-.17c-.01-.06-.02-.13,0-.2,0-.07.02-.14.05-.2.03-.09.07-.16.11-.22s.09-.1.14-.14c.05-.03.11-.05.18-.07.07-.01.14-.01.23,0l.28.02c.07,0,.13,0,.17-.03.04-.02.07-.07.09-.13.03-.07.03-.14.01-.19-.02-.05-.06-.09-.14-.12-.07-.02-.13-.02-.18.01-.05.03-.09.09-.12.16l-.02.05-.4-.14.02-.05ZM135.48,57.1s-.08,0-.11,0c-.1-.01-.18,0-.23.04-.06.04-.1.09-.13.18-.03.07-.03.14-.03.2,0,.06.04.1.1.12.03.01.06.02.1.02.04,0,.07,0,.11-.02.04-.01.07-.04.1-.07.03-.03.06-.07.07-.12l.13-.37s-.08.02-.12.03Z"/>
            <path class="cls-6" d="M137.17,56.95l-.68-.2.12-.4,1.22.36-.11.38-1.05.94.71.21-.12.4-1.26-.37.11-.38,1.05-.94Z"/>
            <path class="cls-6" d="M138.52,56.87l-.47,1.95-.46-.11.47-1.95.46.11ZM138.68,56.21l-.1.43-.46-.11.1-.43.46.11Z"/>
            <path class="cls-6" d="M139.41,57.49l-.7-.14.08-.41,1.25.25-.08.39-.96,1.03.73.14-.08.41-1.28-.25.08-.39.96-1.03Z"/>
            <path class="cls-6" d="M141.41,58.58c0,.07,0,.13,0,.18,0,.06.01.11.03.15.02.04.04.08.08.11.04.03.08.04.14.05.06,0,.11,0,.15-.02.04-.02.07-.05.1-.09.03-.04.05-.09.06-.14.01-.05.02-.12.03-.18l.18-1.85.5.05-.18,1.85c-.02.17-.05.31-.11.41-.05.11-.12.19-.2.24s-.17.09-.26.11c-.1.01-.2.01-.3,0-.1,0-.2-.03-.29-.06s-.17-.08-.24-.15c-.07-.07-.12-.16-.15-.27s-.04-.26-.02-.44l.18-1.85.5.05-.18,1.85Z"/>
            <path class="cls-6" d="M143.29,57.52v.23s0,0,0,0c.05-.1.12-.17.2-.21.08-.04.17-.06.28-.06.15,0,.27.05.35.14.08.09.12.24.11.44l-.04,1.49h-.48s.04-1.4.04-1.4c0-.1-.01-.18-.04-.22s-.08-.06-.15-.07c-.17,0-.26.1-.26.32l-.04,1.33h-.48s.06-2.02.06-2.02h.46Z"/>
            <path class="cls-6" d="M145.05,56.85v.44s-.47,0-.47,0v-.44s.47,0,.47,0ZM145.06,57.53l.02,2.01h-.48s-.02-2-.02-2h.48Z"/>
            <path class="cls-6" d="M146.71,57.44l-.34,2.03-.55.04-.61-1.97.5-.03.36,1.42h0s.16-1.45.16-1.45l.48-.03Z"/>
            <path class="cls-6" d="M147.39,58.61c0,.06.02.12.03.17.01.05.03.1.06.14.02.04.05.07.08.09.03.02.07.03.11.03.08,0,.13-.05.16-.11.03-.07.04-.16.04-.29l.43-.05c.02.23-.02.42-.11.55-.09.13-.25.21-.48.24-.17.02-.31,0-.41-.04-.1-.05-.19-.12-.24-.22-.06-.1-.1-.21-.13-.33-.03-.12-.05-.25-.06-.38-.02-.13-.02-.26-.02-.39s.02-.24.06-.34c.04-.1.1-.19.19-.26.09-.07.21-.11.37-.13.14-.02.25,0,.35.03.09.04.17.1.23.18.06.08.11.18.14.31.03.12.06.26.08.41v.11s-.92.12-.92.12l.02.16ZM147.78,57.88c-.01-.06-.03-.1-.05-.14-.02-.04-.05-.07-.08-.08-.03-.02-.07-.02-.12-.02-.05,0-.09.02-.11.05-.03.03-.05.06-.06.1-.01.04-.02.08-.02.13,0,.05,0,.1,0,.14v.08s.49-.06.49-.06c-.01-.08-.02-.14-.04-.2Z"/>
            <path class="cls-6" d="M148.84,57.14l.05.26h0c.03-.11.08-.19.13-.26.06-.07.14-.11.23-.13.01,0,.03,0,.04,0,.01,0,.03,0,.04,0l.09.48s-.05,0-.07,0-.05,0-.07.01c-.04,0-.08.02-.12.04-.04.02-.07.05-.1.08s-.05.08-.06.12c-.01.05-.01.11,0,.17l.21,1.19-.47.08-.35-1.97.45-.08Z"/>
            <path class="cls-6" d="M150.15,58.33c.02.08.06.15.11.19.05.04.12.05.2.04.07-.02.12-.05.16-.1.03-.05.04-.11.02-.19-.01-.06-.04-.11-.08-.13-.04-.03-.09-.04-.14-.05l-.36-.05c-.14-.02-.25-.07-.34-.14-.09-.07-.14-.18-.18-.32-.02-.08-.02-.16-.02-.24,0-.08.03-.15.07-.21.04-.07.1-.12.18-.17.08-.05.18-.09.29-.12.21-.05.38-.04.5.04s.21.2.25.38l.02.08-.42.1c-.02-.1-.06-.17-.1-.21s-.1-.05-.18-.03c-.06.01-.11.04-.14.09-.04.05-.05.1-.03.17.01.05.04.09.07.12.04.03.1.05.18.06l.3.04c.16.02.28.07.36.14.08.07.14.18.17.33.02.1.03.2.01.28-.02.08-.05.16-.1.22-.05.06-.11.12-.19.16-.08.04-.16.07-.26.1-.13.03-.24.04-.33.04-.09,0-.17-.03-.23-.07-.06-.04-.11-.1-.15-.17-.04-.07-.07-.15-.09-.25l-.02-.07.42-.1.02.07Z"/>
            <path class="cls-6" d="M151.25,55.87l.12.42-.46.13-.12-.42.46-.13ZM151.44,56.54l.54,1.93-.46.13-.54-1.93.46-.13Z"/>
            <path class="cls-6" d="M152.14,55.72l.17.55.26-.08.11.33-.26.08.33,1.03c.02.08.05.13.08.15.03.03.08.03.15,0,.02,0,.04-.01.05-.02.02,0,.03-.01.05-.02l.11.34c-.05.02-.1.03-.15.05s-.1.04-.15.05c-.09.03-.16.04-.22.05s-.11,0-.15-.04c-.04-.03-.08-.07-.11-.14-.03-.06-.06-.14-.09-.24l-.35-1.09-.23.07-.11-.33.23-.07-.17-.55.45-.15Z"/>
            <path class="cls-6" d="M153.62,58.23c.08-.03.13-.08.15-.14.02-.06.02-.13,0-.21l-1.19-1.69.47-.17.75,1.2h0s-.26-1.39-.26-1.39l.45-.17.23,1.91c.02.17.03.31.03.42,0,.11-.01.2-.04.27-.03.07-.07.13-.14.17s-.14.08-.25.12l-.18.07-.13-.36s.08-.02.12-.03Z"/>
            <path class="cls-6" d="M154.9,55.64l-.15-.32.22-.1-.1-.21c-.04-.08-.06-.15-.07-.22,0-.07,0-.12.03-.18.02-.05.06-.1.11-.14.05-.04.11-.08.18-.11.08-.04.16-.07.24-.1l.16.33s-.03,0-.05.02l-.04.02c-.06.03-.1.06-.11.09-.01.03,0,.08.01.13l.07.16.25-.12.15.32-.25.12.71,1.5-.43.2-.71-1.5-.22.1Z"/>
            <path class="cls-6" d="M156.01,55.34c-.04-.13-.06-.24-.05-.35,0-.1.04-.2.1-.28.06-.08.15-.16.27-.22.13-.07.24-.11.34-.11.1,0,.2.02.29.07.09.05.18.13.26.24.08.11.17.24.25.39.08.15.14.29.18.42.04.13.06.24.05.35,0,.11-.04.2-.11.28-.06.08-.15.15-.27.22-.13.07-.24.11-.34.12-.1,0-.2-.01-.29-.06s-.18-.13-.26-.24c-.08-.11-.17-.24-.25-.39-.08-.15-.14-.29-.18-.42ZM156.75,55.78c.05.07.09.13.13.18s.09.08.14.09.1,0,.15-.02c.09-.05.12-.13.1-.24-.02-.11-.09-.28-.21-.5-.12-.22-.22-.37-.3-.45s-.17-.1-.25-.05c-.05.03-.08.06-.1.11s-.01.1,0,.16c.01.06.04.13.08.21.04.08.08.16.13.25.05.09.09.17.14.25Z"/>
            <path class="cls-6" d="M157.59,53.83l.14.23h0c0-.11,0-.21.03-.29.03-.09.09-.15.17-.21.01,0,.02-.01.04-.02.01,0,.03-.01.04-.02l.26.42s-.05.02-.07.03c-.02.01-.04.02-.06.04-.04.02-.07.05-.1.08-.03.03-.05.07-.07.11-.01.04-.02.09-.01.14,0,.05.03.1.06.16l.63,1.03-.41.25-1.04-1.71.39-.24Z"/>
            <path class="cls-6" d="M158.86,52.19l.61.82.47-.35-.61-.82.4-.3,1.58,2.14-.4.3-.7-.95-.47.35.7.95-.4.3-1.58-2.14.4-.3Z"/>
            <path class="cls-6" d="M161.44,52.59s.08.09.12.12c.04.04.08.07.13.09.04.02.08.03.12.03.04,0,.08-.01.11-.04.06-.05.09-.11.07-.19-.01-.07-.05-.16-.13-.27l.33-.28c.14.18.22.36.21.52,0,.16-.09.32-.26.46-.13.11-.26.18-.37.19s-.22,0-.32-.05c-.1-.05-.2-.12-.29-.21-.09-.09-.18-.18-.26-.28-.09-.1-.16-.21-.23-.31-.07-.11-.11-.21-.14-.32-.02-.11-.02-.21.02-.32.04-.11.12-.21.24-.32.11-.09.21-.14.31-.17.1-.02.2-.01.29.02.1.03.19.09.29.18.1.08.19.18.29.3l.07.09-.72.61.1.12ZM161.37,51.77s-.08-.07-.12-.09c-.04-.02-.08-.03-.12-.02-.04,0-.07.02-.11.05s-.06.07-.07.1c0,.04,0,.08,0,.12.01.04.03.08.05.12.02.04.05.08.08.12l.05.06.37-.32c-.05-.06-.1-.11-.14-.15Z"/>
            <path class="cls-6" d="M161.89,51.31c-.08-.08-.14-.17-.17-.25s-.04-.16-.03-.23c0-.08.03-.15.08-.22.04-.07.1-.14.16-.2.1-.1.2-.17.28-.21.08-.04.16-.06.24-.05.07,0,.14.03.21.07.06.04.13.1.19.16l.73.76c.07.07.12.12.16.15.04.03.09.06.15.09l-.33.32s-.07-.03-.1-.05c-.03-.02-.06-.04-.09-.06h0c.03.12.03.21,0,.28-.03.07-.09.15-.17.23-.06.06-.12.1-.18.11-.06.02-.13.02-.19,0s-.12-.04-.18-.08c-.06-.04-.11-.08-.16-.13-.07-.07-.12-.13-.15-.2-.03-.06-.05-.12-.06-.19,0-.06,0-.12.02-.19.02-.06.05-.13.09-.21l.14-.24c.04-.06.05-.12.05-.16,0-.04-.03-.09-.08-.14-.05-.06-.11-.09-.16-.1s-.11.02-.17.07c-.05.05-.08.11-.07.17,0,.06.04.12.09.18l.04.04-.31.3-.03-.03ZM162.79,51.14s-.03.07-.05.1c-.05.08-.08.16-.07.22,0,.07.04.13.1.2.05.06.11.09.17.11.06.02.11,0,.16-.04.02-.02.04-.05.06-.08.02-.03.03-.07.03-.1,0-.04,0-.08-.02-.12s-.04-.08-.08-.12l-.27-.28s-.01.08-.03.12Z"/>
            <path class="cls-6" d="M162.54,48.94l1.93,1.83-.33.35-1.93-1.83.33-.35Z"/>
            <path class="cls-6" d="M163.19,48.33l.43.38.18-.21.26.23-.18.21.81.72c.06.05.11.08.15.09.04,0,.08-.02.13-.07.01-.01.02-.03.04-.04.01-.01.02-.03.03-.04l.27.24s-.07.08-.1.12c-.03.04-.06.08-.1.12-.06.07-.12.12-.17.16-.05.04-.1.05-.15.05s-.11-.02-.16-.06c-.06-.04-.13-.09-.2-.15l-.86-.76-.16.18-.26-.23.16-.18-.43-.38.32-.36Z"/>
            <path class="cls-6" d="M163.67,47.63l.68.53h0c-.08-.18-.05-.36.08-.52.09-.12.2-.18.32-.19.12,0,.26.05.42.17l1.17.92-.3.37-1.08-.86c-.08-.06-.15-.1-.2-.1-.05,0-.1.03-.14.08-.1.13-.07.27.1.4l1.04.83-.3.37-2.09-1.65.3-.37Z"/>
            <path class="cls-6" d="M166.68,46.74c.05.03.1.06.15.08s.09.03.14.03c.04,0,.08-.02.12-.04.04-.03.08-.06.11-.12.04-.06.06-.14.04-.22-.01-.08-.07-.15-.16-.21-.05-.03-.1-.05-.14-.06-.04-.01-.09-.01-.14,0-.05.01-.1.03-.15.06-.05.03-.12.08-.19.13-.09.07-.18.13-.26.17-.08.04-.17.07-.25.08-.08.01-.17,0-.25-.02-.08-.02-.17-.06-.26-.12-.22-.14-.35-.31-.39-.49-.04-.18.01-.38.14-.58.06-.09.13-.17.2-.24.07-.06.15-.11.24-.14s.18-.03.27-.01c.1.02.2.06.31.13l.06.04-.26.4c-.11-.07-.2-.1-.28-.11-.08,0-.15.04-.2.12-.03.05-.05.09-.05.13,0,.04,0,.08.01.11.01.03.03.06.06.09.03.03.06.05.09.07.07.04.14.07.2.07.06,0,.15-.03.24-.09l.36-.23c.09-.06.17-.1.24-.12.07-.02.14-.04.21-.04.07,0,.13.01.2.04s.13.06.2.1c.24.15.37.33.39.52.03.2-.03.41-.18.64-.15.24-.32.37-.49.4-.18.03-.37-.02-.58-.15l-.09-.06.27-.42.07.04Z"/>
            <path class="cls-6" d="M167.27,44.45s-.09-.03-.13-.04c-.04,0-.08,0-.11.01-.03.01-.06.04-.08.08-.03.05-.04.1-.03.15,0,.05.03.09.07.13s.1.09.17.14c.07.05.16.1.26.16.11.06.2.11.28.15.08.04.15.06.21.07.06.01.11,0,.15,0,.04-.02.07-.05.1-.09.04-.07.04-.14-.01-.21-.05-.07-.14-.14-.29-.22l.22-.4c.23.13.38.27.45.44.07.16.04.36-.08.58-.06.1-.12.19-.19.25-.07.06-.16.1-.25.11-.1.01-.22,0-.35-.04-.13-.04-.29-.11-.46-.21-.18-.1-.32-.2-.42-.3s-.17-.2-.21-.29-.05-.19-.03-.29c.02-.1.05-.19.11-.29.11-.19.25-.31.43-.34.18-.03.37.01.58.13l-.22.4s-.09-.05-.13-.06Z"/>
            <path class="cls-6" d="M166.69,42.81l.39.2-.21.43-.39-.2.21-.43ZM167.3,43.12l1.8.89-.21.43-1.8-.89.21-.43Z"/>
            <path class="cls-6" d="M168.74,42.96c.05.02.11.04.16.06.05.02.11.02.15.02s.09,0,.12-.02c.04-.02.06-.05.08-.09.03-.07.03-.14-.01-.2-.04-.06-.12-.12-.23-.18l.17-.39c.21.1.35.23.42.37s.06.32-.03.53c-.07.16-.15.27-.25.33s-.2.1-.31.1c-.11,0-.23-.02-.35-.06-.12-.04-.24-.09-.35-.14-.12-.05-.24-.11-.35-.18-.11-.07-.19-.14-.26-.23-.07-.09-.11-.19-.12-.3-.01-.11.01-.24.08-.39.06-.13.12-.22.2-.28.08-.06.17-.1.27-.11.1-.01.21,0,.34.03.12.03.25.08.4.14l.11.05-.38.87.15.06ZM168.32,42.26c-.06-.02-.11-.03-.15-.03s-.08,0-.11.03-.06.05-.08.1-.02.09-.02.12.03.07.06.11.06.06.1.09.08.05.13.07l.07.03.2-.45c-.07-.03-.14-.05-.19-.07Z"/>
            <path class="cls-6" d="M168.21,40.99l.22.08h0c-.08-.09-.12-.17-.14-.27-.02-.09,0-.19.03-.28.05-.14.13-.24.25-.28.11-.05.26-.04.45.03l1.4.51-.16.45-1.3-.47c-.1-.04-.17-.05-.22-.03-.05.02-.09.06-.11.13-.06.16.02.28.23.35l1.25.45-.16.45-1.88-.69.16-.43Z"/>
            <path class="cls-6" d="M169.42,39.15s-.09,0-.13,0-.08.02-.11.04c-.03.02-.05.05-.07.1-.02.06-.02.1,0,.15.02.04.05.08.1.12s.11.07.19.1c.08.03.18.06.29.1.12.03.22.06.31.08.09.02.16.03.22.02.06,0,.11-.01.14-.04.03-.02.06-.06.07-.11.02-.08,0-.14-.06-.2-.06-.06-.17-.11-.33-.15l.13-.44c.25.07.43.18.53.33.1.14.12.34.05.58-.03.12-.08.21-.13.29-.05.08-.13.13-.22.17-.09.03-.21.05-.35.04-.14,0-.3-.04-.5-.1-.2-.06-.36-.12-.48-.2-.12-.07-.21-.15-.27-.24-.06-.09-.09-.18-.1-.28,0-.1,0-.2.04-.31.06-.21.18-.35.34-.42.17-.07.36-.07.59,0l-.13.44s-.1-.02-.14-.03Z"/>
            <path class="cls-6" d="M170.35,38.23c.06.01.12.02.17.03.06,0,.11,0,.15,0,.05,0,.09-.02.12-.05s.05-.06.06-.1c.02-.08,0-.14-.05-.19-.05-.05-.14-.1-.26-.14l.1-.42c.23.06.39.16.48.29.1.13.12.31.07.53-.04.17-.1.29-.18.37s-.18.13-.29.15c-.11.02-.23.02-.35,0s-.25-.04-.37-.07c-.13-.03-.25-.07-.37-.11-.12-.04-.22-.1-.3-.17-.08-.07-.14-.16-.18-.27s-.03-.24,0-.4c.03-.13.08-.24.15-.32.07-.08.15-.13.25-.16.1-.03.21-.04.34-.03.13.01.26.03.42.07l.11.03-.21.92.16.04ZM169.8,37.62c-.06,0-.11,0-.15,0-.04,0-.08.02-.11.05-.03.03-.05.06-.06.11-.01.05,0,.09,0,.12.02.04.04.07.07.09.03.03.07.05.12.07.04.02.09.03.14.04l.08.02.11-.48c-.08-.01-.14-.03-.2-.03Z"/>
            <path class="cls-6" d="M170.84,36.72c.09.01.16,0,.22-.03.06-.03.1-.09.11-.17.01-.07,0-.13-.03-.18-.03-.05-.09-.08-.17-.09-.06-.01-.11,0-.15.03-.04.03-.07.06-.1.11l-.18.31c-.07.12-.16.21-.26.26-.1.05-.22.07-.36.04-.08-.01-.16-.04-.22-.08-.07-.04-.12-.09-.17-.15-.04-.06-.08-.14-.09-.23-.02-.09-.02-.2,0-.32.04-.21.11-.36.23-.45.12-.09.26-.11.44-.09h.08s-.07.44-.07.44c-.1-.02-.18-.01-.23,0-.05.02-.09.07-.1.15,0,.06,0,.11.03.16.03.05.08.08.15.09.05,0,.1,0,.14-.02.04-.02.09-.07.13-.15l.15-.27c.08-.14.17-.23.26-.28.1-.05.22-.06.37-.03.11.02.19.05.27.1.07.05.13.1.17.17.04.07.07.15.07.23,0,.09,0,.18-.01.28-.02.13-.05.24-.09.32-.04.08-.09.15-.16.19-.06.04-.13.07-.21.07-.08,0-.17,0-.26-.01h-.07s.07-.44.07-.44h.07Z"/>
          </g>
        </g>
        <g>
          <g>
            <path class="cls-4" d="M134.39,50.18l-1.03-.58c.05-.08.11-.14.17-.2.06-.06.13-.1.2-.15.08-.04.16-.08.26-.1.1-.03.22-.06.35-.08.08-.01.15-.03.19-.06.05-.03.09-.06.11-.11.01-.02.02-.05.03-.07,0-.03,0-.05,0-.07,0-.02-.01-.05-.03-.07-.01-.02-.04-.04-.06-.06-.11-.06-.22-.03-.33.11l-.28-.23c.05-.06.11-.12.17-.16.06-.04.13-.07.2-.09s.14-.02.21,0c.07.01.14.03.21.07.07.04.12.08.17.14.04.05.07.11.09.18.02.06.02.13,0,.2-.01.07-.04.14-.08.22-.1.18-.3.29-.58.33-.1.01-.19.03-.26.05-.07.02-.13.04-.18.06v.02s.6.34.6.34l-.17.3Z"/>
            <path class="cls-4" d="M136.26,50.1c-.06.13-.13.23-.2.32-.07.09-.15.16-.24.21s-.17.08-.26.09c-.09,0-.17,0-.26-.05-.09-.04-.16-.1-.21-.18s-.08-.17-.09-.26c-.01-.1,0-.21.02-.32.02-.11.06-.23.11-.34.06-.13.13-.23.2-.32.07-.09.15-.16.24-.21.08-.05.17-.08.26-.09.09,0,.17,0,.26.05.08.04.15.09.2.16.05.07.08.16.1.25.02.1.01.2,0,.32s-.06.24-.12.36ZM135.92,49.95c.16-.34.17-.55.03-.62-.15-.07-.3.07-.46.41-.16.35-.17.55-.02.62.14.07.3-.07.46-.42Z"/>
            <path class="cls-4" d="M137.72,50.67c-.05.13-.11.24-.17.34s-.14.17-.22.23c-.08.06-.16.09-.25.11s-.17,0-.26-.03c-.09-.03-.17-.09-.22-.16-.05-.07-.09-.16-.11-.26-.02-.1-.02-.2,0-.32.01-.12.04-.23.09-.35.05-.13.11-.24.17-.34s.14-.17.22-.23.16-.09.25-.11c.09-.01.17,0,.26.03.08.03.15.08.21.15s.09.15.12.24c.02.09.03.2.02.32-.01.12-.04.24-.09.37ZM137.37,50.54c.13-.36.13-.56-.02-.62-.15-.06-.29.09-.43.45-.13.36-.13.57.03.62.15.06.29-.1.42-.45Z"/>
            <path class="cls-4" d="M139.12,51.38c-.03.1-.07.18-.12.24-.05.07-.11.12-.18.16-.07.04-.14.06-.22.07-.08,0-.16,0-.25-.03-.06-.02-.12-.05-.17-.08-.05-.04-.1-.09-.14-.15-.04-.06-.06-.13-.08-.2s-.02-.16,0-.25l.34.06s0,.07,0,.1.01.06.03.09.03.05.06.07.05.03.08.04c.07.02.13.01.18-.02.06-.03.1-.1.13-.19.01-.04.02-.08.02-.12,0-.04,0-.07-.02-.1-.01-.03-.03-.06-.05-.08-.02-.02-.05-.04-.08-.05-.1-.03-.19,0-.28.07l-.27-.11.43-.9.86.25-.1.34-.6-.17h-.01s-.02.04-.02.05c0,.01-.01.02-.02.04,0,.02-.02.03-.03.05s-.02.04-.04.07v.02s.08,0,.12,0c.04,0,.07,0,.11.02.07.02.14.06.19.1.05.05.09.11.12.17s.05.14.05.22c0,.08,0,.16-.03.24Z"/>
          </g>
          <g>
            <path class="cls-3" d="M154.21,47.79c.26.47.58.91,1.03,1.22.01.16.03.31.04.47-.47-.23-.85-.62-1.08-1.09-.13.08-.25.16-.38.24-.06-.16-.11-.32-.17-.48.2-.1.39-.23.56-.37Z"/>
            <path class="cls-3" d="M152.67,48.63c.2-.1.39-.2.59-.31.04.16.08.31.12.47-.11.06-.23.12-.34.18.33.4.62.91.47,1.45-.23-.44-.46-.89-.81-1.25-.01-.18-.02-.36-.03-.55Z"/>
            <path class="cls-3" d="M151.86,49.04c.05.12.09.24.13.36-.06.11-.11.22-.16.34.14.05.27.1.41.16-.05.23-.12.46-.17.7.19-.06.37-.14.55-.21-.03.18-.06.37-.09.56-.23.09-.46.18-.69.26-.2-.28,0-.62.06-.92-.14-.07-.28-.14-.41-.21.04-.37.21-.71.38-1.03Z"/>
            <path class="cls-3" d="M150.28,49.62c.42.53.79,1.24.53,1.92-.17-.51-.37-1.02-.71-1.45.06-.16.11-.32.18-.48Z"/>
          </g>
        </g>
        <g>
          <path class="cls-5" d="M144.32,13.38c4.31,2.87,7.16,7.88,7.16,13.58,0,.59-.03,1.18-.09,1.76,4.57,2.42,7.83,7.1,8.41,12.62-2.12,1.12-4.53,1.76-7.07,1.76-3.1,0-5.98-.94-8.41-2.55-2.43,1.62-5.31,2.55-8.41,2.55-2.55,0-4.95-.63-7.07-1.76.58-5.52,3.84-10.21,8.41-12.62-.06-.58-.09-1.16-.09-1.76,0-5.7,2.85-10.71,7.16-13.58M144.32,10.68l-1.25.83c-5.11,3.4-8.16,9.18-8.16,15.45,0,.17,0,.34,0,.52-4.65,2.98-7.72,7.97-8.31,13.63l-.16,1.51,1.34.71c2.49,1.32,5.3,2.02,8.12,2.02s5.83-.75,8.41-2.17c2.58,1.42,5.46,2.17,8.41,2.17s5.63-.7,8.12-2.02l1.34-.71-.16-1.51c-.59-5.66-3.66-10.65-8.31-13.63,0-.17,0-.34,0-.52,0-6.27-3.05-12.05-8.16-15.45l-1.25-.83h0Z"/>
          <g>
            <path class="cls-8" d="M143.38,16.77c.07.11.07.2.02.31,0-.05.02-.09-.02-.11-.02,0-.02.02-.02.05,0-.05-.02-.07-.04-.09-.05.14-.05.25-.05.38-.05-.02,0-.11-.05-.09-.07.02-.02.14,0,.2-.16-.29-.18-.65-.05-.97.09-.18.25-.34.4-.49.02-.02.07-.09,0-.09-.07-.02-.11.05-.13.11t-.05-.04c-.02.07-.07.13-.09.2,0-.02,0-.09-.02-.09-.07.02-.07.13-.09.2,0-.02,0-.09-.02-.07-.07.04-.07.16-.09.25,0-.02.02-.09-.02-.09-.07.02-.05.11-.05.18,0-.02-.02-.05-.02-.05-.07.07-.04.16-.04.22-.05-.02-.02-.09-.05-.09-.07.07-.05.16-.07.25-.02-.05.02-.11-.02-.16-.04.07-.04.13-.07.2-.02-.07.02-.13-.02-.18-.05.07,0,.16-.02.22-.04-.2-.04-.4.02-.58.05-.09.09-.18.16-.27.07-.09.16-.16.25-.22.13-.11.31-.14.43-.27-.04-.05-.11.02-.16-.02t-.04.04s0-.04-.02-.04c-.05,0-.07.02-.09.04,0-.02,0-.04-.02-.04-.05,0-.07.04-.09.07,0-.02-.02-.04-.02-.04-.02.02-.09.02-.09.09t-.04-.05s-.05.05-.05.09c0-.02,0-.04-.02-.04-.02.02-.05.04-.05.09l-.02-.02s-.05.09-.05.13c0-.02-.02-.04-.02-.04-.05.04-.02.11-.05.16-.05-.27.07-.52.32-.58.25-.09.52-.16.79-.02,0,0,.02-.02.02-.04-.02-.07-.09-.2-.18-.11,0-.02,0-.04.02-.07-.05-.07-.11.02-.16,0l.02-.02c-.04-.07-.09.02-.14,0l.02-.02s-.02-.02-.05-.02c-.02.02-.09.02-.09.09,0-.02.02-.09-.02-.09-.07.02-.09.11-.13.16-.02-.09,0-.18.09-.22.2-.14.4-.16.63-.09.14.04.2.16.27.27.04-.09.07-.18.09-.29,0,.02,0,.04.02.07.05-.09.02-.2.07-.29.05.09.02.2.07.29.02-.02.02-.04.02-.07.02.11.05.2.09.29.07-.16.2-.25.36-.29.25-.05.65.02.63.34-.05-.04-.07-.14-.14-.16-.04,0-.02.07-.02.09,0-.07-.07-.07-.09-.09-.02-.02-.04,0-.04.02s.02.02.02.04c-.05-.02-.09-.07-.14-.02.02,0,.02.02.02.05-.05-.02-.09-.05-.14-.05-.05.02.02.07,0,.09-.02-.04-.07-.02-.09-.02-.05.04-.14.18-.11.18.27-.11.58-.07.83.02.09.02.2.11.27.2.04.11.07.25.04.38-.04-.04,0-.11-.04-.16,0,0-.02.02-.02.04,0-.09-.07-.13-.11-.2-.02,0-.02.02-.02.04,0-.04-.02-.07-.04-.09t-.05.05c0-.07-.07-.07-.09-.09,0,0-.02.02-.02.04-.02-.02-.04-.04-.07-.07-.05,0-.07.04-.11,0-.02-.02-.04,0-.04.04t-.05-.04s-.11-.02-.16.02c.2.18.49.25.67.49.18.27.27.56.18.85-.02-.07.02-.16-.02-.22-.04.05,0,.11-.02.18-.02-.07-.02-.13-.07-.2-.05.05-.02.11-.02.16-.02-.09,0-.18-.07-.25-.02,0,0,.07-.05.09,0-.07.02-.16-.04-.22,0,0-.02.02-.02.05,0-.07.02-.16-.04-.18-.05,0-.02.07-.02.09-.02-.09-.02-.2-.09-.25-.02-.02-.02.04-.02.07-.02-.07-.02-.18-.09-.2-.02,0-.02.07-.02.09-.02-.07-.07-.13-.09-.2t-.04.04c-.02-.07-.07-.11-.14-.13-.02,0-.02.04-.02.07.14.18.31.31.43.49.16.31.11.7-.05,1.01.02-.07.07-.18,0-.2-.04-.02,0,.07-.04.09,0-.14,0-.25-.05-.38-.02.02-.04.04-.04.09,0-.02,0-.05-.02-.05-.04.02-.02.07-.02.11-.04-.11,0-.25.05-.36,0-.04-.02-.09-.05-.13-.02.02-.04.05-.04.09-.02-.09,0-.2-.04-.29-.05.02-.02.07-.02.09-.05-.07.02-.16-.05-.2-.02,0,0,.07-.05.09,0-.07.02-.16-.04-.2-.02,0-.02.07-.02.09,0-.07-.02-.18-.09-.2-.02,0,0,.07-.02.09h-.04s0-.04-.02-.04-.05,0-.05.02c.02.07.11.07.14.13,0,.07.07.09.07.16-.02-.05-.09-.07-.14-.02.11.04.22.11.2.25,0-.05-.05-.09-.09-.11-.02,0-.07,0-.07.02.09.09.18.18.16.31,0-.05-.02-.09-.07-.11-.02,0-.05.02-.05.02.07.13.14.27.09.43,0-.05.02-.11-.02-.09-.05,0-.02.07-.02.11l-.02-.02c-.04.07.02.11,0,.18-.02.07-.02.11-.04.18-.02-.07.02-.16-.02-.22-.04.09-.04.2-.04.31,0-.02,0-.05-.02-.05-.05.02,0,.09-.05.11.02-.16-.04-.32-.04-.47.02,0,.04,0,.04-.02,0-.04.02-.14-.02-.14-.04-.02,0,.09-.04.11,0-.09,0-.18-.07-.2-.05-.02.02.07-.05.09-.09.02-.05-.07-.09-.11-.07.9-.04,1.37,0,2.27,0,.11.07.23.04.34-.02.05-.04.11-.02.16,0,.07.02.13.07.2.02.09-.07.18-.05.27.07.16.14.31.25.47h-.9c.09-.18.25-.34.22-.54,0-.07-.04-.14-.02-.2.11-.18.02-.34.05-.54.02-.05.04-.09.04-.14.05-.92.05-1.37,0-2.3-.04.02-.02.07-.02.09-.02.04-.09.02-.11-.02.02,0,.02-.02.02-.04-.05-.07-.05.02-.07.02-.02.04-.05.11-.02.18-.04-.02,0-.13-.04-.11-.05,0-.02.09-.02.14,0,.02.02.02.05.02,0,.16-.07.32-.05.47-.04-.02,0-.09-.04-.11-.02,0-.02.02-.02.05,0-.11,0-.22-.04-.31-.05.07,0,.16-.02.22-.02-.07-.02-.11-.05-.18-.02-.07.05-.11,0-.18l-.02.02s.02-.11-.02-.11c-.04-.02-.02.04-.02.09-.02-.13-.02-.29.09-.4.02-.02,0-.04-.02-.04-.07,0-.07.07-.09.11-.02-.14.07-.22.16-.31,0-.02-.05-.02-.07-.02-.05.02-.09.07-.09.11-.02-.13.09-.2.2-.25-.04-.04-.11-.02-.13.02.04-.09.09-.16.18-.23-.02-.02-.04-.05-.09-.05.04-.02,0-.07.04-.09,0-.02-.02-.02-.04-.02-.07.05-.11.14-.11.23,0-.02,0-.09-.02-.09-.07.05-.05.14-.05.2-.04-.02,0-.09-.04-.09-.07.05,0,.14-.04.2,0-.02.02-.07-.02-.09-.04.09-.02.2-.04.29,0-.04-.02-.07-.05-.09-.02.07-.07.11-.02.18h0Z"/>
            <rect class="cls-8" x="143.77" y="20.8" width="1.09" height=".19"/>
            <rect class="cls-8" x="144.14" y="21.07" width=".37" height=".17"/>
          </g>
          <g>
            <path class="cls-8" d="M146.34,23.22c-.11,0-.2.08-.23.18,0,.02-.02.03-.03.03-.27.03-.54-.08-.7-.31-.03-.04-.03-.09-.02-.14.03-.07.06-.14.11-.2l.31-.38s-.25.2-.42.33c-.08.06-.2.05-.27-.03-2.83-3.37-5.58-2.16-5.58-2.16,2.77-.47,4.72,1.57,5.32,2.32.06.08.09.18.05.27-.03.08-.07.15-.12.21l-.31.38.38-.31s.1-.07.16-.1c.07-.03.14,0,.19.04.24.27.45.4.79.43.27.02.46-.13.46-.13.07-.04.12-.11.12-.2,0-.13-.11-.24-.24-.24Z"/>
            <path class="cls-8" d="M142.31,23.22c.11,0,.2.08.23.18,0,.02.02.03.03.03.27.03.54-.08.7-.31.03-.04.03-.09.02-.14-.03-.07-.06-.14-.11-.2l-.31-.38s.25.2.42.33c.08.06.2.05.27-.03,2.83-3.37,5.58-2.16,5.58-2.16-2.77-.47-4.72,1.57-5.32,2.32-.06.08-.09.18-.05.27.03.08.07.15.12.21l.31.38-.38-.31s-.1-.07-.16-.1c-.07-.03-.14,0-.19.04-.24.27-.45.4-.79.43-.27.02-.46-.13-.46-.13-.07-.04-.12-.11-.12-.2,0-.13.11-.24.24-.24Z"/>
          </g>
          <g>
            <path class="cls-4" d="M144.32,32.9s-.02,0-.03,0c-.04-.01-.06-.05-.06-.09l-.12-4.36s0-.03.01-.05c0-.01.62-1.02,1.98-.4,1.11.5,1.59.19,1.6.19.03-.02.06-.02.09,0,.03.01.05.04.05.08l.46,4.45s-.03.09-.07.1c-.04,0-.9.21-2.03-.33-1.04-.49-1.78.35-1.81.39-.02.02-.04.03-.07.03ZM145.56,32.14c.22,0,.46.05.72.17.88.42,1.59.36,1.83.33l-.44-4.23c-.23.08-.76.17-1.65-.23-1.12-.51-1.64.17-1.73.3l.11,4.12c.21-.18.62-.45,1.15-.45Z"/>
            <path class="cls-4" d="M148.81,33.55s-.05-.01-.07-.03l-.6-.75s-.02-.03-.02-.05l-.46-4.45s.03-.09.07-.1c.05-.01.09.01.11.05l.36.88s0,.01,0,.02l.7,4.32s-.02.08-.05.1c-.01,0-.03,0-.04,0ZM148.3,32.68l.36.45-.64-3.96-.11-.27.39,3.78Z"/>
            <path class="cls-4" d="M144.8,33.71s-.06-.02-.08-.05l-.48-.81.16-.1.4.68c.14-.21.48-.53,1.09-.33,1.24.42,2.89.26,2.91.26l.02.19c-.07,0-1.71.16-2.99-.27-.69-.23-.93.34-.94.37-.01.03-.04.06-.08.06,0,0,0,0,0,0Z"/>
            <path class="cls-4" d="M144.25,32.86s-.77-.88-1.81-.39c-1.13.54-1.99.34-2.03.33-.05-.01-.08-.05-.07-.1l.46-4.45s.02-.06.05-.08c.03-.01.07-.01.09,0,0,0,.49.32,1.59-.19.49-.22.91-.26,1.24-.12.39.17.51.52.51.54l-.18.06s-.1-.29-.41-.42c-.28-.12-.65-.08-1.08.12-.89.41-1.42.32-1.65.23l-.44,4.23c.23.03.95.09,1.83-.33,1.17-.55,2.02.42,2.03.43l-.14.12Z"/>
            <path class="cls-4" d="M139.83,33.55s-.03,0-.04,0c-.04-.02-.06-.06-.05-.1l.7-4.32s0-.01,0-.02l.36-.88s.06-.07.11-.05c.05.01.07.05.07.1l-.46,4.45s0,.04-.02.05l-.6.75s-.05.03-.07.03ZM140.62,29.17l-.64,3.96.36-.45.39-3.78-.11.27Z"/>
            <path class="cls-4" d="M143.84,33.71s0,0,0,0c-.04,0-.07-.03-.08-.06-.01-.02-.26-.6-.94-.37-1.27.43-2.92.28-2.99.27l.02-.19s1.67.16,2.91-.26c.61-.21.95.12,1.09.33l.4-.68.16.1-.48.81s-.05.05-.08.05Z"/>
            <rect class="cls-4" x="143.84" y="33.52" width=".96" height=".19"/>
          </g>
          <path class="cls-4" d="M137.44,35.69c.34,0,.62.28.62.61s-.28.61-.62.61-.62-.28-.62-.61.28-.61.62-.61M137.44,35.5c-.45,0-.81.36-.81.8s.36.8.81.8.81-.36.81-.8-.36-.8-.81-.8h0Z"/>
          <path class="cls-4" d="M137.29,35.81c.23,0,.41.18.41.4s-.18.4-.41.4-.41-.18-.41-.4.18-.4.41-.4M137.29,35.62c-.33,0-.6.26-.6.59s.27.59.6.59.6-.26.6-.59-.27-.59-.6-.59h0Z"/>
          <path class="cls-4" d="M132.34,41.91c-.05,0-.11,0-.16,0-1.51-.15-1.63-1.34-1.64-1.36,0-.01-.13-.68.32-1.33.39-.57,1.09-.93,2.07-1.09,2.57-.41,3.81-1.5,3.83-1.51l.19.21c-.05.05-1.31,1.16-3.97,1.58-.9.14-1.54.47-1.88.97-.38.55-.27,1.13-.27,1.13,0,.05.11.99,1.39,1.12.59.06,1.04-.28,1.32-.57.57-.61.82-1.47.74-1.95l.28-.05c.11.64-.24,1.58-.81,2.19-.41.44-.89.67-1.39.67Z"/>
          <circle class="cls-4" cx="137.28" cy="36.17" r=".22"/>
          <g>
            <path class="cls-4" d="M134.07,37.15l-.18-.05c.26-.98.58-1.74,1.09-2.56.13-.21.28-.32.43-.31.25,0,.41.29.42.31l-.16.09c-.03-.06-.14-.21-.26-.21,0,0,0,0,0,0-.11,0-.2.12-.27.22-.49.8-.81,1.56-1.07,2.51Z"/>
            <ellipse class="cls-4" cx="136.05" cy="34.86" rx=".26" ry=".3" transform="translate(32.27 129.49) rotate(-56.73)"/>
            <ellipse class="cls-4" cx="135.86" cy="34.68" rx=".22" ry=".25" transform="translate(32.34 129.25) rotate(-56.73)"/>
            <path class="cls-4" d="M135.4,37.29h-.19c0-2.38-.35-2.79-.5-2.85-.11-.04-.2.04-.2.05l-.13-.13s.19-.18.41-.08c.42.18.62,1.19.62,3.03Z"/>
            <ellipse class="cls-4" cx="134.28" cy="34.54" rx=".28" ry=".16" transform="translate(12.12 100.12) rotate(-42.65)"/>
            <ellipse class="cls-4" cx="134.07" cy="34.79" rx=".26" ry=".23" transform="translate(26.45 121.98) rotate(-53.56)"/>
          </g>
          <g>
            <path class="cls-7" d="M135.5,38.19l.09-.69c.02-.15-.09-.29-.24-.31-.15-.02-.29.09-.31.24l-.09.69c-.02.16-.09.31-.19.41-.05.05-.15.13-.28.11-.22-.03-.37-.31-.33-.63l.09-.69c.02-.15-.09-.29-.24-.31-.15-.02-.29.09-.31.24l-.09.69c-.02.17,0,.34.03.49l1.53.49c.19-.19.32-.45.35-.74Z"/>
            <path class="cls-7" d="M135.17,39.04l-1.64-.52v-.05c-.06-.17-.07-.35-.05-.53l.09-.69c.01-.1.06-.19.14-.25.08-.06.18-.09.28-.08.2.03.35.21.33.42l-.09.69c-.02.13,0,.26.06.36.05.09.12.15.19.16.09.01.17-.05.2-.09.09-.09.15-.22.17-.36l.09-.69c.01-.1.06-.19.14-.25.08-.06.18-.09.28-.08.2.03.35.21.33.42l-.09.69c-.04.31-.17.59-.38.8l-.04.04ZM134.7,38.69l.42.13c.16-.17.26-.4.29-.65l.09-.69c.01-.1-.06-.2-.16-.21-.05,0-.1,0-.14.04-.04.03-.07.08-.07.13l-.09.69c-.02.18-.1.35-.22.47-.03.03-.07.06-.12.09ZM133.69,38.37l.45.14s-.01-.02-.02-.03c-.07-.14-.1-.31-.08-.48l.09-.69s0-.1-.04-.14c-.03-.04-.07-.06-.12-.07-.05,0-.1,0-.14.04-.04.03-.06.07-.07.12l-.09.69c-.02.14-.01.27.02.41Z"/>
          </g>
          <g>
            <path class="cls-1" d="M151.97,37.71l1.41-1.44c-.05-.28-.15-.55-.34-.78l-1.9,1.94c.26.14.54.23.83.28Z"/>
            <path class="cls-1" d="M154.74,41.11l2.54-2.6c-.18-.22-.38-.37-.6-.47l-2.56,2.62c.18.21.4.35.62.45Z"/>
            <path class="cls-1" d="M153.93,40.41l2.42-2.48c-.32-.08-.67-.08-1.03-.05l-1.66,1.7c.05.34.15.61.27.82Z"/>
            <path class="cls-1" d="M153.35,37.73c.03-.35.07-.71.07-1.05l-1.05,1.08c.32.02.66,0,.99-.02Z"/>
            <path class="cls-1" d="M154.83,37.94c-.38.06-.76.13-1.13.17-.06.4-.08.76-.07,1.06l1.21-1.23Z"/>
            <path class="cls-1" d="M150.87,37.26l1.95-1.99c-.07-.05-.14-.11-.22-.15-.16-.1-.33-.17-.52-.23l-1.76,1.8c.15.22.34.41.55.57Z"/>
            <g>
              <path class="cls-2" d="M152.08,34.89c-.12-.04-.23-.06-.35-.09l-1.57,1.61c.05.1.1.19.16.28l1.76-1.8Z"/>
              <path class="cls-4" d="M150.32,36.73l-.02-.02c-.06-.08-.11-.18-.17-.28h0s.01-.03.01-.03l1.58-1.62h.01c.13.03.25.06.35.09h.04s-1.81,1.86-1.81,1.86ZM150.18,36.42c.05.09.09.17.14.24l1.71-1.75c-.09-.03-.19-.05-.3-.07l-1.55,1.59Z"/>
            </g>
            <g>
              <path class="cls-2" d="M150.88,37.27c.09.06.17.11.26.16l1.9-1.94c-.06-.08-.14-.15-.22-.22l-1.95,1.99s0,0,0,0Z"/>
              <path class="cls-4" d="M151.14,37.46h-.02c-.11-.07-.19-.12-.27-.17l-.02-.02v-.02s1.97-2,1.97-2h.02c.09.08.16.16.23.24v.02s0,.02,0,.02l-1.91,1.95ZM150.9,37.26c.07.05.14.09.23.14l1.87-1.91c-.05-.06-.12-.13-.19-.19l-1.91,1.95Z"/>
            </g>
            <g>
              <path class="cls-2" d="M152.36,37.76l1.05-1.08c0-.14-.02-.27-.04-.41l-1.41,1.44c.13.02.26.04.39.04Z"/>
              <path class="cls-4" d="M152.37,37.78h-.01c-.15-.01-.28-.02-.4-.04h-.04s1.47-1.51,1.47-1.51v.04c.03.13.04.27.05.41h0s0,.02,0,.02l-1.06,1.08ZM152.02,37.7c.1.02.21.03.34.04l1.04-1.06c0-.12-.01-.24-.03-.35l-1.34,1.37Z"/>
            </g>
            <g>
              <path class="cls-2" d="M153.66,39.58l1.66-1.7c-.16.01-.33.04-.5.06l-1.21,1.23c0,.15.02.28.04.41Z"/>
              <path class="cls-4" d="M153.64,39.63v-.05c-.03-.13-.04-.27-.04-.41h0s0-.02,0-.02l1.21-1.24h0c.19-.03.35-.05.5-.06h.06s-1.74,1.77-1.74,1.77ZM153.65,39.19c0,.12.01.24.03.35l1.59-1.62c-.13.01-.26.03-.42.05l-1.19,1.22Z"/>
            </g>
            <g>
              <path class="cls-2" d="M154.12,40.66l2.56-2.62c-.11-.05-.21-.08-.33-.11l-2.42,2.48c.06.1.12.18.19.26Z"/>
              <path class="cls-4" d="M154.12,40.7l-.02-.02c-.07-.08-.13-.17-.19-.26v-.02s0-.01,0-.01l2.43-2.49h.01c.12.03.23.07.33.12h.03s-.02.04-.02.04l-2.58,2.64ZM153.96,40.41c.05.08.1.15.16.22l2.52-2.58c-.09-.04-.18-.07-.28-.09l-2.4,2.45Z"/>
            </g>
            <g>
              <path class="cls-2" d="M157.28,38.51l-2.54,2.6c.11.05.22.08.33.11l2.4-2.45s0-.01-.01-.02c-.05-.09-.11-.17-.17-.24Z"/>
              <path class="cls-4" d="M155.08,41.25h-.01c-.12-.03-.23-.07-.33-.12h-.03s.02-.04.02-.04l2.56-2.62.02.02c.07.08.12.16.17.24,0,0,0,0,0,0,0,0,0,0,0,.01v.02s0,.01,0,.01l-2.41,2.46ZM154.78,41.1c.09.04.18.07.28.09l2.38-2.43s0,0,0,0c-.05-.07-.1-.14-.15-.22l-2.5,2.56Z"/>
            </g>
            <g>
              <path class="cls-2" d="M152.38,34.59c-.09-.06-.18-.12-.27-.17-.16-.1-.32-.17-.45-.23-.19-.09-.41.05-.43.26,0,.16.11.3.27.32.08,0,.15.02.22.04.12.02.24.05.35.09.18.06.36.13.52.23.08.05.15.1.22.15.08.07.16.14.22.22.19.23.29.5.34.78.02.13.04.27.04.41,0,.34-.03.7-.07,1.05,0,.02,0,.05,0,.07-.01.11-.02.23-.03.34-.05.47-.08.92-.02,1.36.02.12.05.24.08.36.06.19.14.38.26.56.04.06.08.11.12.17.06.08.13.17.2.25.16.19.35.37.55.52.08.07.17.13.25.19.24.16.5.3.77.4.23.08.46-.11.42-.35-.02-.14-.14-.26-.28-.27-.18-.02-.38-.05-.59-.1-.11-.03-.22-.07-.33-.11-.23-.1-.44-.24-.62-.45-.07-.08-.13-.16-.19-.26-.13-.22-.22-.49-.27-.82-.02-.13-.03-.26-.04-.41-.01-.31.01-.66.07-1.06,0-.03,0-.06.01-.09.02-.11.03-.22.04-.33.04-.48.01-.9-.08-1.27-.03-.12-.07-.23-.11-.34-.1-.28-.24-.52-.39-.73-.06-.09-.13-.17-.2-.24-.19-.21-.39-.38-.6-.52Z"/>
              <path class="cls-4" d="M155.63,41.99s-.08,0-.12-.02c-.26-.09-.52-.23-.77-.4-.09-.06-.17-.12-.26-.19-.2-.16-.38-.33-.55-.53-.07-.08-.13-.16-.2-.25v-.02s-.09-.1-.12-.15c-.11-.17-.2-.36-.26-.56-.04-.12-.06-.24-.08-.37-.07-.44-.03-.9.02-1.37v-.1c.02-.08.03-.16.03-.24l.02-.15c.03-.32.07-.65.06-.97,0-.14-.02-.28-.04-.4-.05-.31-.16-.56-.34-.77-.06-.07-.13-.15-.22-.22-.08-.06-.14-.11-.21-.15-.15-.09-.32-.17-.51-.23-.1-.03-.22-.06-.35-.09-.08-.01-.15-.03-.22-.04-.17-.02-.3-.17-.29-.34,0-.11.06-.21.16-.26.09-.06.2-.06.3-.02.16.07.31.15.45.23.1.06.19.11.27.17h0c.22.16.43.33.6.53.07.08.14.16.2.25.17.23.3.47.4.73.04.11.08.23.11.34.1.39.12.82.08,1.27-.01.12-.02.23-.04.33,0,.02,0,.04,0,.05v.04c-.06.39-.09.75-.08,1.06,0,.14.02.28.04.41.05.31.14.59.27.81.05.09.11.18.18.25.16.19.37.33.62.44.1.04.21.08.32.11.22.06.43.08.59.1.15.02.28.14.3.29.02.12-.03.24-.12.32-.06.05-.14.08-.21.08ZM151.54,34.19c-.05,0-.1.01-.15.04-.08.05-.13.13-.13.22,0,.15.1.27.25.29.07,0,.15.02.23.04.13.03.25.05.35.09.19.06.37.14.52.23.07.04.14.09.22.16.09.07.16.15.23.22.18.22.29.48.35.79.02.13.04.27.04.41,0,.32-.03.65-.06.97l-.02.15c0,.08-.02.16-.02.24v.1c-.06.47-.09.92-.03,1.36.02.12.05.24.08.36.06.2.15.38.25.55.03.05.07.1.1.15v.02c.07.08.14.17.21.24.16.19.35.36.54.52.08.06.17.13.25.18.25.17.51.3.76.39.1.03.2.02.28-.05.08-.07.12-.17.11-.28-.02-.13-.13-.24-.26-.25-.15-.02-.37-.04-.59-.1-.12-.03-.23-.07-.33-.11-.25-.11-.46-.26-.63-.45-.07-.08-.13-.17-.19-.26-.14-.23-.23-.51-.28-.83-.02-.13-.03-.27-.04-.41-.01-.31.01-.67.07-1.07v-.04s.01-.04.01-.05c.02-.1.03-.21.04-.33.04-.45.01-.87-.08-1.26-.03-.11-.06-.23-.1-.34-.1-.26-.23-.5-.39-.72-.06-.09-.13-.17-.2-.24-.17-.19-.37-.36-.59-.52h0c-.08-.06-.17-.11-.27-.17-.14-.08-.29-.16-.44-.23-.04-.02-.08-.02-.11-.02Z"/>
            </g>
            <g>
              <g>
                <path class="cls-2" d="M153.35,37.73c-.33.03-.66.05-.99.02-.13,0-.26-.02-.39-.04-.29-.05-.57-.14-.83-.28-.09-.05-.18-.1-.26-.16,0,0,0,0,0,0-.21-.16-.4-.35-.55-.57-.06-.09-.11-.18-.16-.28-.07-.15-.14-.3-.18-.45-.03-.1-.13-.17-.23-.16-.16.02-.25.19-.17.33.11.18.23.34.36.5.07.08.14.16.21.23.19.19.39.36.61.51.09.06.18.12.27.17.24.14.49.26.76.36.11.04.22.08.33.11.24.06.48.11.72.13.15.01.31.01.47,0,.01-.11.02-.23.03-.34,0-.02,0-.05,0-.07Z"/>
                <path class="cls-4" d="M153.11,38.18c-.1,0-.19,0-.27-.01-.24-.02-.49-.07-.73-.13-.1-.03-.21-.06-.33-.11-.27-.1-.52-.22-.76-.36-.1-.06-.19-.12-.27-.17-.22-.15-.42-.32-.61-.51-.07-.07-.14-.15-.21-.23-.14-.17-.26-.33-.36-.5-.04-.07-.05-.16,0-.23.04-.07.11-.12.19-.13.12-.01.22.06.25.17.04.15.1.3.18.45.05.1.11.19.16.28.15.22.34.41.54.56h0c.08.06.16.11.26.17.25.13.52.23.82.28.12.02.25.03.39.04.29.02.61.01.98-.02h.03s0,.1,0,.1c0,.08-.02.16-.02.24v.12s-.03,0-.03,0c-.07,0-.14,0-.2,0ZM149.77,35.83s-.01,0-.02,0c-.07,0-.12.05-.15.11-.03.06-.03.13,0,.19.1.17.22.33.36.5.07.08.14.16.21.23.19.19.39.36.6.51.08.06.17.11.27.17.24.14.49.26.75.35.12.04.23.08.33.11.24.06.48.11.72.13.14.01.28.01.45,0v-.08c.02-.08.02-.16.03-.24v-.04c-.36.03-.68.04-.96.02-.15,0-.28-.02-.4-.04-.31-.05-.59-.15-.84-.28-.11-.06-.19-.11-.27-.17h0c-.22-.16-.4-.36-.56-.58-.06-.08-.11-.18-.17-.28-.08-.16-.14-.31-.18-.46-.02-.08-.1-.14-.18-.14Z"/>
              </g>
              <g>
                <path class="cls-2" d="M156.89,37.83c-.1-.05-.2-.09-.31-.13-.12-.05-.25-.09-.38-.12-.18-.04-.35-.06-.52-.06-.15,0-.29,0-.44,0-.19.01-.38.03-.57.05-.29.03-.6.08-.92.11-.01.11-.02.22-.04.33,0,.03,0,.06-.01.09.37-.04.76-.11,1.13-.17.17-.02.33-.05.5-.06.36-.03.71-.03,1.03.05.11.03.22.06.33.11.22.1.42.25.6.47.06.07.12.15.17.24,0,0,0,.01.01.02.11.16.28.26.47.25h.02c.14,0,.21-.18.11-.28-.1-.1-.2-.2-.3-.29-.08-.07-.16-.14-.24-.2-.2-.16-.42-.3-.65-.42Z"/>
                <path class="cls-4" d="M157.92,39.05c-.19,0-.36-.1-.47-.26,0,0,0,0,0,0,0,0,0,0-.01-.01-.05-.08-.1-.16-.17-.24-.17-.21-.36-.36-.59-.46-.1-.05-.21-.08-.32-.11-.29-.07-.61-.09-1.02-.05-.15.01-.3.03-.49.06-.14.02-.27.04-.41.06-.24.04-.48.08-.72.11h-.03s.01-.07.01-.07c0-.02,0-.04,0-.05.02-.1.03-.21.04-.33v-.02s.02,0,.02,0c.12-.01.24-.03.36-.05.19-.02.38-.05.56-.07.21-.02.39-.04.57-.05.16,0,.3-.01.44,0,.19,0,.36.03.52.06.12.03.24.06.39.12.11.04.21.08.31.14h0c.22.11.44.25.65.42.08.06.16.13.24.2.11.1.21.2.3.29.05.05.07.13.04.2-.03.07-.09.11-.17.12h-.02s-.01,0-.02,0ZM155.73,37.84c.24,0,.44.02.63.07.12.03.23.07.33.11.23.11.44.27.61.47.07.08.12.16.17.24,0,0,0,0,0,0,0,0,0,0,0,.01.1.15.26.24.43.24,0,0,.01,0,.02,0h.02c.06,0,.1-.04.12-.09.02-.05.01-.11-.03-.15-.09-.09-.18-.19-.3-.29-.08-.07-.16-.14-.24-.2-.21-.17-.43-.31-.64-.42h0c-.1-.05-.2-.09-.3-.13-.14-.05-.26-.09-.38-.12-.16-.03-.33-.06-.52-.06-.14,0-.28,0-.44,0-.18.01-.36.03-.57.05-.18.02-.36.04-.56.07-.11.01-.23.03-.34.04-.01.12-.02.22-.04.31,0,.02,0,.04,0,.05h0c.23-.02.46-.05.69-.09.14-.02.28-.04.41-.06.19-.03.35-.05.5-.06.15-.01.28-.02.41-.02Z"/>
              </g>
            </g>
          </g>
          <path class="cls-4" d="M134.5,39.21s-.07,0-.1,0c-.53-.07-.9-.63-.82-1.25l.09-.69c.02-.15.16-.26.31-.24.15.02.26.16.24.31l-.09.69c-.04.31.11.6.33.63.13.02.23-.06.28-.11.1-.1.17-.25.19-.41l.09-.69c.02-.15.16-.26.31-.24.15.02.26.16.24.31l-.09.69c-.04.29-.16.56-.36.75-.18.18-.41.28-.64.28Z"/>
        </g>
      </g>
    </g>
  </g>
</svg>